<svg width="46" height="46" viewBox="0 0 46 46" fill="none" xmlns="http://www.w3.org/2000/svg">
<path d="M22.9168 4.32422C33.2305 4.32422 41.5909 12.6846 41.5909 22.9983C41.5909 33.312 33.2305 41.6724 22.9168 41.6724C12.6031 41.6724 4.24268 33.312 4.24268 22.9983C4.24268 12.6846 12.6031 4.32422 22.9168 4.32422ZM22.9168 28.6006C22.4215 28.6006 21.9465 28.7973 21.5963 29.1475C21.2461 29.4977 21.0494 29.9727 21.0494 30.468C21.0494 30.9632 21.2461 31.4382 21.5963 31.7884C21.9465 32.1386 22.4215 32.3354 22.9168 32.3354C23.4121 32.3354 23.887 32.1386 24.2372 31.7884C24.5875 31.4382 24.7842 30.9632 24.7842 30.468C24.7842 29.9727 24.5875 29.4977 24.2372 29.1475C23.887 28.7973 23.4121 28.6006 22.9168 28.6006ZM22.9168 11.7939C22.4594 11.7939 22.0179 11.9618 21.6761 12.2658C21.3343 12.5697 21.116 12.9885 21.0624 13.4428L21.0494 13.6613V24.8657C21.0499 25.3417 21.2322 25.7995 21.5589 26.1456C21.8856 26.4917 22.3322 26.7 22.8073 26.7279C23.2825 26.7558 23.7504 26.6012 24.1154 26.2957C24.4803 25.9902 24.7149 25.5569 24.7711 25.0842L24.7842 24.8657V13.6613C24.7842 13.166 24.5875 12.691 24.2372 12.3408C23.887 11.9906 23.4121 11.7939 22.9168 11.7939Z" fill="#A16207"/>
</svg>
