<svg width="14" height="23" viewBox="0 0 14 23" fill="none" xmlns="http://www.w3.org/2000/svg">
<path d="M1.28524 21.7916C1.15459 21.6605 1.05111 21.5049 0.980728 21.3337C0.910344 21.1625 0.874442 20.9791 0.875083 20.7941C0.875724 20.609 0.912896 20.4258 0.984464 20.2552C1.05603 20.0845 1.16059 19.9296 1.29214 19.7994L9.69885 11.4507L1.35019 3.04169C1.08693 2.7766 0.939758 2.41778 0.941052 2.04417C0.942347 1.67057 1.092 1.31278 1.3571 1.04952C1.62219 0.786252 1.98101 0.639079 2.35461 0.640373C2.72822 0.641667 3.08601 0.791323 3.34927 1.05642L12.6917 10.4638C12.8224 10.5949 12.9259 10.7505 12.9963 10.9217C13.0666 11.0929 13.1025 11.2763 13.1019 11.4614C13.1013 11.6464 13.0641 11.8296 12.9925 12.0003C12.9209 12.1709 12.8164 12.3258 12.6848 12.456L3.27741 21.7985C3.14632 21.9291 2.99072 22.0326 2.81954 22.103C2.64836 22.1734 2.46498 22.2093 2.27989 22.2086C2.09481 22.208 1.91168 22.1708 1.74099 22.0993C1.57031 22.0277 1.41543 21.9231 1.28524 21.7916Z" fill="#D9D9D9"/>
</svg>
