<svg width="22" height="13" viewBox="0 0 22 13" fill="none" xmlns="http://www.w3.org/2000/svg">
<path d="M0.609592 0.801325C0.739667 0.669659 0.894454 0.564967 1.06508 0.49325C1.2357 0.421533 1.4188 0.384201 1.60388 0.383398C1.78896 0.382595 1.97238 0.418337 2.14362 0.488571C2.31486 0.558805 2.47055 0.66215 2.60176 0.792682L11.0158 9.13399L19.3594 0.719981C19.6224 0.454656 19.9801 0.304689 20.3537 0.303068C20.7273 0.301447 21.0863 0.448306 21.3516 0.711338C21.6169 0.97437 21.7669 1.33203 21.7685 1.70563C21.7701 2.07924 21.6233 2.43818 21.3602 2.70351L12.026 12.1191C11.8959 12.2508 11.7411 12.3555 11.5705 12.4272C11.3999 12.4989 11.2168 12.5362 11.0317 12.537C10.8466 12.5378 10.6632 12.5021 10.492 12.4318C10.3207 12.3616 10.165 12.2583 10.0338 12.1277L0.618234 2.79349C0.486569 2.66342 0.381876 2.50863 0.310158 2.33801C0.238441 2.16739 0.201109 1.98428 0.200306 1.7992C0.199503 1.61412 0.235245 1.4307 0.305479 1.25947C0.375713 1.08823 0.47906 0.932537 0.609592 0.801325Z" fill="#333333"/>
</svg>
