<svg width="21" height="21" viewBox="0 0 21 21" fill="none" xmlns="http://www.w3.org/2000/svg">
<path d="M10.8792 0.90332C5.34915 0.90332 0.87915 5.37332 0.87915 10.9033C0.87915 16.4333 5.34915 20.9033 10.8792 20.9033C16.4092 20.9033 20.8792 16.4333 20.8792 10.9033C20.8792 5.37332 16.4092 0.90332 10.8792 0.90332ZM15.1791 15.2033C15.0866 15.296 14.9767 15.3696 14.8558 15.4198C14.7348 15.4699 14.6051 15.4958 14.4742 15.4958C14.3432 15.4958 14.2135 15.4699 14.0925 15.4198C13.9716 15.3696 13.8617 15.296 13.7692 15.2033L10.8792 12.3133L7.98915 15.2033C7.80217 15.3903 7.54858 15.4953 7.28415 15.4953C7.01972 15.4953 6.76613 15.3903 6.57915 15.2033C6.39217 15.0163 6.28713 14.7627 6.28713 14.4983C6.28713 14.3674 6.31292 14.2377 6.36302 14.1168C6.41313 13.9958 6.48657 13.8859 6.57915 13.7933L9.46915 10.9033L6.57915 8.01332C6.39217 7.82634 6.28713 7.57275 6.28713 7.30832C6.28713 7.04389 6.39217 6.7903 6.57915 6.60332C6.76613 6.41634 7.01972 6.3113 7.28415 6.3113C7.54858 6.3113 7.80217 6.41634 7.98915 6.60332L10.8792 9.49332L13.7692 6.60332C13.8617 6.51074 13.9716 6.4373 14.0926 6.38719C14.2136 6.33709 14.3432 6.3113 14.4742 6.3113C14.6051 6.3113 14.7347 6.33709 14.8557 6.38719C14.9767 6.4373 15.0866 6.51074 15.1791 6.60332C15.2717 6.6959 15.3452 6.80581 15.3953 6.92678C15.4454 7.04774 15.4712 7.17739 15.4712 7.30832C15.4712 7.43925 15.4454 7.5689 15.3953 7.68986C15.3452 7.81083 15.2717 7.92074 15.1791 8.01332L12.2892 10.9033L15.1791 13.7933C15.5591 14.1733 15.5591 14.8133 15.1791 15.2033Z" fill="white"/>
</svg>
