<svg width="17" height="16" viewBox="0 0 17 16" fill="none" xmlns="http://www.w3.org/2000/svg">
<path d="M8.14984 0.430176C8.42844 0.430176 8.69564 0.54085 8.89264 0.737853C9.08964 0.934855 9.20032 1.20205 9.20032 1.48065V7.43335H15.153C15.4316 7.43335 15.6988 7.54402 15.8958 7.74103C16.0928 7.93803 16.2035 8.20522 16.2035 8.48383C16.2035 8.76243 16.0928 9.02962 15.8958 9.22662C15.6988 9.42363 15.4316 9.5343 15.153 9.5343H9.20032V15.487C9.20032 15.7656 9.08964 16.0328 8.89264 16.2298C8.69564 16.4268 8.42844 16.5375 8.14984 16.5375C7.87124 16.5375 7.60404 16.4268 7.40704 16.2298C7.21004 16.0328 7.09937 15.7656 7.09937 15.487V9.5343H1.14667C0.868064 9.5343 0.600871 9.42363 0.403869 9.22662C0.206866 9.02962 0.0961914 8.76243 0.0961914 8.48383C0.0961914 8.20522 0.206866 7.93803 0.403869 7.74103C0.600871 7.54402 0.868064 7.43335 1.14667 7.43335H7.09937V1.48065C7.09937 1.20205 7.21004 0.934855 7.40704 0.737853C7.60404 0.54085 7.87124 0.430176 8.14984 0.430176Z" fill="#333333"/>
</svg>
