<svg width="60" height="60" viewBox="0 0 60 60" fill="none" xmlns="http://www.w3.org/2000/svg">
<g clip-path="url(#clip0_657_1135)">
<path d="M29.8518 59.8521C46.3385 59.8521 59.7036 46.4869 59.7036 30.0002C59.7036 13.5135 46.3385 0.148438 29.8518 0.148438C13.3651 0.148438 0 13.5135 0 30.0002C0 46.4869 13.3651 59.8521 29.8518 59.8521Z" fill="#26A17B"/>
<path fill-rule="evenodd" clip-rule="evenodd" d="M33.4378 32.5802V32.5765C33.2325 32.5914 32.1747 32.6549 29.8145 32.6549C27.9301 32.6549 26.6036 32.5989 26.1371 32.5765V32.5821C18.8831 32.2631 13.4688 31 13.4688 29.4887C13.4688 27.9793 18.8831 26.7162 26.1371 26.3916V31.3246C26.611 31.3582 27.9693 31.4384 29.8462 31.4384C32.0982 31.4384 33.2269 31.3451 33.4378 31.3265V26.3953C40.6768 26.7181 46.0781 27.9812 46.0781 29.4887C46.0781 31 40.6768 32.2593 33.4378 32.5802ZM33.4378 25.8822V21.4679H43.5389V14.7363H16.036V21.4679H26.1371V25.8804C17.9279 26.2573 11.7542 27.8842 11.7542 29.832C11.7542 31.7798 17.9279 33.4049 26.1371 33.7836V47.9297H33.4378V33.7799C41.6339 33.403 47.7927 31.778 47.7927 29.832C47.7927 27.886 41.6339 26.261 33.4378 25.8822Z" fill="white"/>
</g>
<defs>
<clipPath id="clip0_657_1135">
<rect width="59.7036" height="59.7036" fill="white" transform="translate(0 0.148438)"/>
</clipPath>
</defs>
</svg>
