<svg width="36" height="35" viewBox="0 0 36 35" fill="none" xmlns="http://www.w3.org/2000/svg">
<path fill-rule="evenodd" clip-rule="evenodd" d="M24.4818 1.875C29.3124 1.875 33.228 5.79375 33.228 10.6213V24.3787C33.228 29.2094 29.3093 33.125 24.4818 33.125H10.7243C5.89365 33.125 1.97803 29.2063 1.97803 24.3787V10.6213C1.97803 5.79062 5.89678 1.875 10.7243 1.875H24.4818ZM17.603 9.375C13.1155 9.375 9.47803 13.0125 9.47803 17.5C9.47803 21.9875 13.1155 25.625 17.603 25.625C22.0905 25.625 25.728 21.9875 25.728 17.5C25.728 13.0125 22.0905 9.375 17.603 9.375ZM17.603 11.875C18.3417 11.875 19.0732 12.0205 19.7556 12.3032C20.4381 12.5859 21.0582 13.0002 21.5805 13.5225C22.1028 14.0449 22.5172 14.6649 22.7998 15.3474C23.0825 16.0299 23.228 16.7613 23.228 17.5C23.228 18.2387 23.0825 18.9701 22.7998 19.6526C22.5172 20.3351 22.1028 20.9551 21.5805 21.4775C21.0582 21.9998 20.4381 22.4141 19.7556 22.6968C19.0732 22.9795 18.3417 23.125 17.603 23.125C16.1112 23.125 14.6804 22.5324 13.6256 21.4775C12.5707 20.4226 11.978 18.9918 11.978 17.5C11.978 16.0082 12.5707 14.5774 13.6256 13.5225C14.6804 12.4676 16.1112 11.875 17.603 11.875ZM26.6655 6.25C26.0854 6.25 25.529 6.48047 25.1187 6.8907C24.7085 7.30094 24.478 7.85734 24.478 8.4375C24.478 9.01766 24.7085 9.57406 25.1187 9.9843C25.529 10.3945 26.0854 10.625 26.6655 10.625C27.2457 10.625 27.8021 10.3945 28.2123 9.9843C28.6226 9.57406 28.853 9.01766 28.853 8.4375C28.853 7.85734 28.6226 7.30094 28.2123 6.8907C27.8021 6.48047 27.2457 6.25 26.6655 6.25Z" fill="#63678D"/>
</svg>
