<svg width="40" height="35" viewBox="0 0 40 35" fill="none" xmlns="http://www.w3.org/2000/svg">
<path d="M9.08854 11.5652V34.6271H0.494792V11.5652H9.08854ZM9.63542 4.44423C9.65278 5.57677 9.21441 6.52313 8.32031 7.28333C7.42622 8.04352 6.25 8.42362 4.79167 8.42362H4.73958C3.31597 8.42362 2.17014 8.04352 1.30208 7.28333C0.434028 6.52313 0 5.57677 0 4.44423C0 3.29618 0.447049 2.34594 1.34115 1.5935C2.23524 0.841063 3.40278 0.464844 4.84375 0.464844C6.28472 0.464844 7.43924 0.841063 8.30729 1.5935C9.17535 2.34594 9.61806 3.29618 9.63542 4.44423ZM40 21.409V34.6271H31.4323V22.2933C31.4323 20.6643 31.0807 19.3883 30.3776 18.4652C29.6745 17.5421 28.5764 17.0805 27.0833 17.0805C25.9896 17.0805 25.0738 17.3482 24.3359 17.8834C23.5981 18.4186 23.0469 19.0819 22.6823 19.8731C22.4913 20.3385 22.3958 20.9668 22.3958 21.7581V34.6271H13.8281C13.8628 28.4369 13.8802 23.4181 13.8802 19.5706C13.8802 15.723 13.8715 13.4269 13.8542 12.6823L13.8281 11.5652H22.3958V14.9163H22.3438C22.691 14.4199 23.0469 13.9855 23.4115 13.6131C23.776 13.2408 24.2665 12.8374 24.8828 12.403C25.4991 11.9686 26.2543 11.6312 27.1484 11.3907C28.0425 11.1502 29.0365 11.03 30.1302 11.03C33.099 11.03 35.4861 11.9104 37.2917 13.6713C39.0972 15.4322 40 18.0114 40 21.409Z" fill="#63678D"/>
</svg>
