<svg width="41" height="35" viewBox="0 0 41 35" fill="none" xmlns="http://www.w3.org/2000/svg">
<path d="M40.6372 4.26102C39.1394 4.9722 37.5506 5.43902 35.9238 5.64595C37.6183 4.55744 38.9194 2.83373 39.5321 0.779948C37.9212 1.80447 36.1588 2.52631 34.321 2.91428C32.8239 1.20497 30.6913 0.136719 28.3308 0.136719C23.7986 0.136719 20.1241 4.0748 20.1241 8.93193C20.1241 9.62138 20.1967 10.2926 20.3366 10.9365C13.5163 10.5696 7.46939 7.06806 3.42174 1.74672C2.71549 3.04574 2.3108 4.55677 2.3108 6.16844C2.3108 9.21997 3.75971 11.912 5.96158 13.4893C4.65838 13.4456 3.38385 13.0683 2.24439 12.3891C2.24393 12.4259 2.24393 12.4627 2.24393 12.4998C2.24393 16.7612 5.07268 20.3161 8.82674 21.1242C7.61828 21.4764 6.35069 21.528 5.1208 21.2749C6.16502 24.7692 9.1958 27.312 12.7867 27.3831C9.97814 29.742 6.43955 31.1482 2.59486 31.1482C1.93236 31.1482 1.27924 31.1065 0.637207 31.0253C4.26893 33.5209 8.58252 34.977 13.2169 34.977C28.3117 34.977 36.566 21.5746 36.566 9.95196C36.566 9.57047 36.5581 9.19117 36.5422 8.81404C38.1488 7.56925 39.5355 6.02746 40.6372 4.26102Z" fill="#63678D"/>
</svg>
