<svg width="286" height="188" viewBox="0 0 286 188" fill="none" xmlns="http://www.w3.org/2000/svg">
<path d="M189.304 56.487L173.323 31.426C173.114 31.0959 172.816 30.8191 172.459 30.6238C172.102 30.4285 171.698 30.3216 171.288 30.314C170.879 30.3064 170.478 30.3983 170.127 30.5804C169.776 30.7626 169.488 31.0284 169.29 31.351L165 38.3254C132.425 23.5702 109.667 47.5944 109.667 47.5944L121.417 58.0673C138.648 40.3745 157.863 50.0806 157.863 50.0806L154.129 56.1254C153.929 56.4478 153.828 56.8162 153.837 57.1928C153.845 57.5695 153.962 57.941 154.175 58.2694C154.389 58.5979 154.692 58.8716 155.053 59.0626C155.414 59.2536 155.821 59.3551 156.231 59.3566L187.44 59.6096C187.825 59.583 188.194 59.4706 188.516 59.2821C188.837 59.0936 189.101 58.8346 189.284 58.5273C189.467 58.2201 189.565 57.8739 189.569 57.5185C189.572 57.1631 189.481 56.8091 189.304 56.487Z" fill="black"/>
<path d="M189.304 50.487L173.323 25.426C173.114 25.0959 172.816 24.8191 172.459 24.6238C172.102 24.4285 171.698 24.3216 171.288 24.314C170.879 24.3064 170.478 24.3983 170.127 24.5804C169.776 24.7626 169.488 25.0284 169.29 25.351L165 32.3254C132.425 17.5702 109.667 41.5944 109.667 41.5944L121.417 52.0673C138.648 34.3745 157.863 44.0806 157.863 44.0806L154.129 50.1254C153.929 50.4478 153.828 50.8162 153.837 51.1928C153.845 51.5695 153.962 51.941 154.175 52.2694C154.389 52.5979 154.692 52.8716 155.053 53.0626C155.414 53.2536 155.821 53.3551 156.231 53.3566L187.44 53.6096C187.825 53.583 188.194 53.4706 188.516 53.2821C188.837 53.0936 189.101 52.8346 189.284 52.5273C189.467 52.2201 189.565 51.8739 189.569 51.5185C189.572 51.1631 189.481 50.8091 189.304 50.487Z" fill="#1976D2"/>
<path d="M161.98 135.756C146.064 151.058 129.352 144.581 125.904 142.994L131.09 135.167C131.192 135.017 131.246 134.842 131.247 134.662C131.248 134.482 131.195 134.304 131.094 134.146C130.994 133.989 130.849 133.858 130.675 133.767C130.502 133.677 130.307 133.632 130.111 133.635L94.5469 132.324C94.3589 132.316 94.1736 132.353 94.0098 132.433C93.846 132.512 93.7096 132.63 93.6144 132.776C93.5193 132.921 93.4687 133.089 93.468 133.261C93.4673 133.434 93.5163 133.605 93.6102 133.757L110.84 162.787C110.933 162.94 111.068 163.069 111.23 163.161C111.392 163.254 111.576 163.306 111.764 163.314C111.951 163.322 112.136 163.285 112.3 163.206C112.464 163.128 112.601 163.01 112.698 162.866L118.236 154.486C150.02 169.49 173.284 146.523 173.284 146.523L161.98 135.756Z" fill="black"/>
<path d="M164.98 129.756C149.064 145.058 132.352 138.581 128.904 136.994L134.09 129.167C134.192 129.017 134.246 128.842 134.247 128.662C134.248 128.482 134.195 128.304 134.094 128.146C133.994 127.989 133.849 127.858 133.675 127.767C133.502 127.677 133.307 127.632 133.111 127.635L97.5469 126.324C97.3589 126.316 97.1736 126.353 97.0098 126.433C96.846 126.512 96.7096 126.63 96.6144 126.776C96.5193 126.921 96.4687 127.089 96.468 127.261C96.4673 127.434 96.5163 127.605 96.6102 127.757L113.84 156.787C113.933 156.94 114.068 157.069 114.23 157.161C114.392 157.254 114.576 157.306 114.764 157.314C114.951 157.322 115.136 157.285 115.3 157.206C115.464 157.128 115.601 157.01 115.698 156.866L121.236 148.486C153.02 163.49 176.284 140.523 176.284 140.523L164.98 129.756Z" fill="#43E571"/>
<path d="M217.285 154.268C244.701 158.695 269.973 142.453 273.732 117.99C277.491 93.5266 258.313 70.1067 230.896 65.6797C203.48 61.2528 178.208 77.4952 174.449 101.958C170.69 126.421 189.869 149.841 217.285 154.268Z" fill="#263238"/>
<path d="M214.979 149.12C242.395 153.547 267.668 137.304 271.426 112.841C275.185 88.3781 256.007 64.9582 228.591 60.5313C201.174 56.1044 175.902 72.3468 172.143 96.8098C168.385 121.273 187.563 144.693 214.979 149.12Z" fill="#455A64"/>
<path opacity="0.2" d="M218.393 137.51C239.407 139.898 257.872 126.98 259.637 108.657C261.401 90.3344 245.796 73.5448 224.782 71.1568C203.768 68.7688 185.302 81.6868 183.538 100.01C181.773 118.333 197.379 135.123 218.393 137.51Z" fill="white"/>
<path d="M220.124 137.531C199.421 136.005 183.241 119.986 183.477 101.532C183.429 101.846 183.379 102.17 183.402 102.495C182.578 121.375 198.98 137.928 220.05 139.436C241.12 140.943 258.85 126.954 259.685 108.087C259.734 107.763 259.688 107.434 259.69 107.102C258.305 125.525 240.815 139.055 220.124 137.531Z" fill="#FAFAFA"/>
<path opacity="0.3" d="M223.038 71.1465C243.74 72.6723 259.922 88.6804 259.684 107.145C259.732 106.831 259.782 106.507 259.761 106.171C260.583 87.3025 244.181 70.7492 223.125 69.2328C202.069 67.7163 184.311 81.7232 183.489 100.592C183.439 100.916 183.474 101.243 183.471 101.575C184.857 83.1519 202.349 69.6117 223.038 71.1465Z" fill="black"/>
<path d="M241.041 115.535C241.245 110.727 238.826 107.422 235.126 105.894C236.622 105.123 237.857 103.997 238.707 102.629C239.557 101.261 239.991 99.6992 239.967 98.1C240.17 93.3796 237.39 89.8173 231.881 88.2852L232.145 82.4556L226.14 82.0178L225.903 87.4308L222.493 87.1793L222.73 81.7663L216.726 81.3177L216.488 86.7414L211.025 86.3357L207.218 86.0535L206.975 91.432L210.781 91.7143L209.641 117.866L205.427 117.552L205.195 122.932L209.398 123.245L214.873 123.653L214.598 129.946L220.601 130.394L220.89 124.092L224.288 124.342L224.012 130.646L230.017 131.084L230.299 124.581C237.131 124.222 240.797 120.992 241.041 115.535ZM218.419 92.2718L226.548 92.8753C231.052 93.2037 233.493 95.1045 233.382 98.5103C233.272 101.916 230.604 103.391 226.102 103.052L216.88 102.372L217.326 92.195L218.419 92.2718ZM226.71 119.094L216.875 118.37L216.177 118.324L216.602 107.656L227.121 108.435C232.033 108.796 234.617 110.631 234.463 114.318C234.31 118.005 231.617 119.487 226.705 119.126L226.71 119.094Z" fill="#263238"/>
<path d="M238.123 115.319C238.327 110.511 235.908 107.206 232.208 105.678C233.708 104.911 234.946 103.785 235.796 102.417C236.646 101.048 237.078 99.4843 237.049 97.8841C237.264 93.1656 234.472 89.6014 228.975 88.0712L229.225 82.2506L223.222 81.8019L222.985 87.2149L219.575 86.9634L219.812 81.5504L213.807 81.1126L213.57 86.5256L208.107 86.1198L204.3 85.8376L204.057 91.2162L207.875 91.5003L206.723 117.651L202.507 117.346L202.277 122.716L206.492 123.031L211.955 123.437L211.68 129.73L217.684 130.179L217.96 123.875L221.358 124.124L221.082 130.428L227.087 130.866L227.382 124.366C234.212 124.017 237.879 120.776 238.123 115.319ZM215.5 92.0667L223.631 92.6594C228.144 93.0005 230.575 94.8887 230.476 98.2964C230.378 101.704 227.698 103.177 223.184 102.836L213.962 102.156L214.408 91.9791L215.5 92.0667ZM223.79 118.888L213.955 118.165L213.258 118.118L213.683 107.451L224.213 108.232C229.125 108.593 231.697 110.426 231.544 114.113C231.39 117.8 228.699 119.271 223.787 118.91L223.79 118.888Z" fill="#455A64"/>
<path d="M58.3511 126.521C85.7673 130.948 111.04 114.705 114.798 90.2425C118.557 65.7795 99.3789 42.3596 71.9626 37.9327C44.5463 33.5057 19.274 49.7482 15.5153 74.2112C11.7565 98.6741 30.9348 122.094 58.3511 126.521Z" fill="#FF725E"/>
<path opacity="0.4" d="M58.3511 126.521C85.7673 130.948 111.04 114.705 114.798 90.2425C118.557 65.7795 99.3789 42.3596 71.9626 37.9327C44.5463 33.5057 19.274 49.7482 15.5153 74.2112C11.7565 98.6741 30.9348 122.094 58.3511 126.521Z" fill="black"/>
<path d="M56.0436 121.384C83.4598 125.811 108.732 109.569 112.491 85.1058C116.25 60.6428 97.0714 37.2229 69.6551 32.7959C42.2388 28.369 16.9665 44.6114 13.2078 69.0744C9.44906 93.5374 28.6273 116.957 56.0436 121.384Z" fill="#FF725E"/>
<path opacity="0.2" d="M59.4573 109.784C80.4714 112.172 98.9369 99.2539 100.701 80.9309C102.465 62.6078 86.8603 45.8182 65.8462 43.4302C44.8321 41.0423 26.3665 53.9602 24.6023 72.2833C22.8381 90.6064 38.4432 107.396 59.4573 109.784Z" fill="white"/>
<path d="M61.1765 109.792C40.4858 108.269 24.2935 92.2476 24.5316 73.7832C24.4818 74.1075 24.4336 74.4211 24.4549 74.7569C23.6324 93.6256 40.0327 110.19 61.1024 111.697C82.1722 113.205 99.903 99.2157 100.739 80.3381C100.789 80.0138 100.754 79.6869 100.755 79.3657C99.3692 97.789 81.8877 111.342 61.1765 109.792Z" fill="#FAFAFA"/>
<path opacity="0.3" d="M64.0913 43.3981C84.7939 44.924 100.974 60.9429 100.748 79.4093C100.798 79.085 100.846 78.7715 100.813 78.4337C101.647 59.5669 85.2469 43.0028 64.1772 41.4953C43.1074 39.9877 25.3632 53.9857 24.5407 72.8544C24.4909 73.1787 24.5256 73.5056 24.5249 73.8268C25.9341 55.4074 43.4123 41.8761 64.0913 43.3981Z" fill="black"/>
<path d="M82.1059 87.7882C82.3088 82.9902 79.9032 79.6768 76.1914 78.1467C77.692 77.3801 78.9303 76.2553 79.7806 74.8864C80.6308 73.5174 81.0627 71.9533 81.0322 70.3528C81.2472 65.6343 78.4551 62.0701 72.9563 60.5507L73.2087 54.7193L67.2037 54.2815L66.9671 59.6944L63.5567 59.4429L63.7933 54.0299L57.79 53.5813L57.5416 58.9923L52.0765 58.5974L48.2701 58.3152L48.0385 63.6957L51.8465 63.9671L50.693 90.1281L46.4787 89.8133L46.2471 95.1938L50.4614 95.5087L55.9264 95.9036L55.6501 102.208L61.655 102.645L61.9297 96.3522L65.3401 96.6037L65.0536 102.895L71.0569 103.344L71.3513 96.8431C78.1933 96.4965 81.861 93.2552 82.1059 87.7882ZM59.4864 64.5138L67.6155 65.1173C72.1311 65.4476 74.5597 67.3466 74.4611 70.7543C74.3626 74.1619 71.6848 75.6241 67.1692 75.2939L57.9468 74.6135L58.3931 64.437L59.4864 64.5138ZM67.7769 91.3355L57.9418 90.6117L57.258 90.5566L57.681 79.8999L68.2117 80.6807C73.1234 81.0417 75.7091 82.8663 75.542 86.5621C75.3749 90.2578 72.6803 91.7506 67.7686 91.3896L67.7769 91.3355Z" fill="#FF725E"/>
<path opacity="0.3" d="M82.1059 87.7882C82.3088 82.9902 79.9032 79.6768 76.1914 78.1467C77.692 77.3801 78.9303 76.2553 79.7806 74.8864C80.6308 73.5174 81.0627 71.9533 81.0322 70.3528C81.2472 65.6343 78.4551 62.0701 72.9563 60.5507L73.2087 54.7193L67.2037 54.2815L66.9671 59.6944L63.5567 59.4429L63.7933 54.0299L57.79 53.5813L57.5416 58.9923L52.0765 58.5974L48.2701 58.3152L48.0385 63.6957L51.8465 63.9671L50.693 90.1281L46.4787 89.8133L46.2471 95.1938L50.4614 95.5087L55.9264 95.9036L55.6501 102.208L61.655 102.645L61.9297 96.3522L65.3401 96.6037L65.0536 102.895L71.0569 103.344L71.3513 96.8431C78.1933 96.4965 81.861 93.2552 82.1059 87.7882ZM59.4864 64.5138L67.6155 65.1173C72.1311 65.4476 74.5597 67.3466 74.4611 70.7543C74.3626 74.1619 71.6848 75.6241 67.1692 75.2939L57.9468 74.6135L58.3931 64.437L59.4864 64.5138ZM67.7769 91.3355L57.9418 90.6117L57.258 90.5566L57.681 79.8999L68.2117 80.6807C73.1234 81.0417 75.7091 82.8663 75.542 86.5621C75.3749 90.2578 72.6803 91.7506 67.7686 91.3896L67.7769 91.3355Z" fill="black"/>
<path d="M79.1642 87.5685C79.3789 82.7724 76.9615 79.4571 73.2496 77.927C74.7511 77.1613 75.9901 76.0366 76.8404 74.6675C77.6908 73.2984 78.1221 71.7338 78.0905 70.1331C78.3054 65.4146 75.5133 61.8504 70.0146 60.331L70.2669 54.4996L64.2619 54.0618L64.0253 59.4747L60.6149 59.2232L60.8634 53.8122L54.8601 53.3635L54.6235 58.7765L49.1466 58.3796L45.3402 58.0974L45.1085 63.4779L48.9166 63.7493L47.7631 89.9103L43.6251 89.6521L43.3816 95.0307L47.5959 95.3456L53.0593 95.7513L52.7846 102.045L58.7896 102.482L59.0643 96.1891L62.4746 96.4407L62.1999 102.734L68.2032 103.182L68.4858 96.6801C75.2752 96.2806 78.9429 93.0393 79.1642 87.5685ZM56.5532 64.3176L64.6704 64.9192C69.186 65.2495 71.6146 67.1485 71.516 70.5562C71.4175 73.9639 68.7396 75.426 64.2241 75.0958L55.0017 74.4154L55.448 64.2389L56.5532 64.3176ZM64.8318 91.1375L54.9967 90.4136L54.3129 90.3586L54.7359 79.7018L65.2666 80.4826C70.1783 80.8436 72.764 82.6682 72.5969 86.364C72.4298 90.0598 69.7622 91.5347 64.8505 91.1737L64.8318 91.1375Z" fill="#FF725E"/>
<path d="M110.657 65.2652C110.657 65.2652 110.589 65.1545 110.479 64.9261C110.368 64.6978 110.217 64.3409 110.027 63.9115L109.322 62.2576C109.018 61.4982 108.662 60.7559 108.255 60.0355L106.753 57.3222C106.214 56.3266 105.429 55.3468 104.702 54.2322C103.896 53.0581 103.006 51.9334 102.037 50.8658C101.531 50.2856 101.089 49.6048 100.489 49.0868L98.7036 47.3472C96.0097 44.7699 93.0244 42.4634 89.8018 40.4697L87.0646 38.9198C86.6053 38.6683 86.1493 38.3953 85.6647 38.1508L84.1754 37.4893C83.1741 37.0507 82.1676 36.5668 81.1257 36.1548L77.8736 35.0314C76.7635 34.6529 75.6326 34.3334 74.4866 34.0746C73.3292 33.7448 72.1521 33.4844 70.963 33.2951L67.3249 32.7076L63.5912 32.4261C58.3789 32.2093 53.1879 32.7002 48.1868 33.883C43.2138 35.1264 38.4879 37.0276 34.1548 39.5281C30.1831 41.9482 26.6153 44.8732 23.5531 48.22L21.5311 50.6302L21.0371 51.2373L20.6108 51.8776L19.7583 53.1581C18.6725 54.7868 17.7025 56.4804 16.8538 58.2289C16.4214 59.0676 16.1396 59.9528 15.7799 60.7922C15.4274 61.6162 15.1237 62.4585 14.87 63.3154C14.3644 64.9117 13.9684 66.5388 13.6843 68.1873C13.3847 69.6839 13.2002 71.2017 13.1321 72.7295C13.005 74.0862 12.9857 75.4532 13.0744 76.8196C13.1711 78.0872 13.156 79.2924 13.33 80.3731C13.504 81.4538 13.6778 82.4568 13.8191 83.3549C13.9481 84.1323 14.134 84.9027 14.3756 85.6607C14.5637 86.3337 14.7193 86.9017 14.8408 87.3756C14.9623 87.8495 15.0462 88.1732 15.1265 88.441C15.1667 88.5599 15.1886 88.6828 15.1918 88.8061C15.1425 88.6904 15.0998 88.5725 15.0639 88.4531C14.9701 88.1942 14.8658 87.845 14.7258 87.4124L14.1998 85.6988C13.9305 84.9405 13.7246 84.1665 13.584 83.3834L13.0356 80.392C12.8462 79.2535 12.8428 78.0896 12.7241 76.8073C12.625 75.4321 12.6295 74.0557 12.7377 72.6879C12.7907 71.1477 12.961 69.6166 13.2474 68.1057C13.522 66.4342 13.9095 64.7836 14.4076 63.1632C14.6436 62.3249 14.9363 61.5026 15.2839 60.701C15.6334 59.8489 15.9049 58.951 16.3407 58.0907C17.1868 56.3069 18.1621 54.5805 19.2601 52.9225C19.533 52.4902 19.8177 52.0598 20.1041 51.6185L20.5439 50.9693L21.0396 50.3514C21.7124 49.5293 22.3988 48.6984 23.0884 47.8458C26.1731 44.4506 29.7723 41.482 33.7828 39.0249C38.176 36.4867 42.9718 34.5626 48.0193 33.3131C53.0793 32.1437 58.3285 31.6805 63.5932 31.9389L67.3743 32.2281L71.0598 32.8232C72.248 33.0215 73.4238 33.2891 74.58 33.6243C75.7378 33.8851 76.8806 34.2065 78.0026 34.5869L81.2751 35.7358C82.339 36.1624 83.3439 36.657 84.357 37.0976L85.8684 37.7738C86.3513 38.029 86.8073 38.3021 87.2785 38.5554L90.0276 40.1073C93.2672 42.1375 96.2671 44.4796 98.9736 47.0916L100.764 48.8764C101.356 49.4485 101.783 50.1489 102.311 50.6663C103.271 51.7544 104.15 52.8996 104.942 54.0936C105.667 55.2191 106.449 56.2205 106.974 57.225L108.434 59.9758C108.831 60.7028 109.17 61.4538 109.449 62.2226C109.7 62.8836 109.935 63.409 110.102 63.9014L110.501 64.9408C110.563 65.0448 110.616 65.1533 110.657 65.2652Z" fill="#FAFAFA"/>
<path d="M60.9109 53.8193C60.3641 53.8781 59.8097 53.8815 59.2578 53.8294C58.2187 53.7945 56.7125 53.7175 54.8948 53.6123L55.1598 53.3892C55.1069 54.9983 55.0428 56.8383 54.9706 58.8099L54.9274 59.0909L54.6193 59.0412L52.9979 58.9234L45.3443 58.308L45.6076 58.0958C45.5159 59.7207 45.4199 61.0569 45.3362 61.9963C45.3176 62.4905 45.2424 62.9796 45.112 63.4558C45.0109 62.9633 44.9816 62.463 45.0248 61.9681C45.0238 61.0262 45.0487 59.6785 45.0914 58.0567L45.1263 57.8297L45.387 57.8718L53.0438 58.3879L54.6635 58.5165L54.3444 58.7752C54.4522 56.8094 54.5518 54.9752 54.6301 53.3591L54.6666 53.1213L54.9274 53.1634C56.7367 53.3226 58.2448 53.4664 59.2841 53.5788C59.8327 53.5972 60.3792 53.678 60.9109 53.8193Z" fill="#FAFAFA"/>
<path d="M71.5728 54.6994C70.3746 54.8932 69.142 54.8967 67.9278 54.7096C66.723 54.7055 65.5205 54.5113 64.3727 54.1356C66.7755 53.9415 69.2111 54.1211 71.5777 54.6669L71.5728 54.6994Z" fill="#FAFAFA"/>
<path d="M47.521 89.5166C47.3433 89.4879 47.4588 83.7563 47.7702 76.6713C48.0815 69.5863 48.522 63.8739 48.6439 63.8714C48.7657 63.8689 48.7061 69.6317 48.3947 76.7167C48.0833 83.8017 47.6886 89.5326 47.521 89.5166Z" fill="#FAFAFA"/>
<path d="M67.2914 75.3693C65.3633 75.5191 63.4156 75.4724 61.4835 75.2298C59.542 75.1771 57.6046 74.9386 55.7028 74.5182C57.6313 74.3748 59.5783 74.4216 61.5107 74.6576C63.4521 74.7104 65.3895 74.9489 67.2914 75.3693Z" fill="#FAFAFA"/>
<path d="M66.8142 91.3576C64.8857 91.5009 62.9387 91.4542 61.0063 91.2181C59.0648 91.1654 57.1275 90.9268 55.2256 90.5065C57.1541 90.3631 59.1011 90.4099 61.0335 90.6459C62.975 90.6987 64.9123 90.9372 66.8142 91.3576Z" fill="#FAFAFA"/>
</svg>
