<svg width="151" height="43" viewBox="0 0 151 43" fill="none" xmlns="http://www.w3.org/2000/svg">
<path d="M13.572 34.68C11.7 34.68 9.996 34.32 8.46 33.6C6.948 32.88 5.64 31.908 4.536 30.684C3.456 29.436 2.616 28.044 2.016 26.508C1.416 24.948 1.116 23.352 1.116 21.72C1.116 20.016 1.428 18.396 2.052 16.86C2.7 15.3 3.576 13.92 4.68 12.72C5.808 11.496 7.128 10.536 8.64 9.84C10.176 9.12 11.856 8.76 13.68 8.76C15.528 8.76 17.208 9.132 18.72 9.876C20.256 10.62 21.564 11.616 22.644 12.864C23.724 14.112 24.564 15.504 25.164 17.04C25.764 18.576 26.064 20.16 26.064 21.792C26.064 23.472 25.752 25.092 25.128 26.652C24.504 28.188 23.628 29.568 22.5 30.792C21.396 31.992 20.076 32.94 18.54 33.636C17.028 34.332 15.372 34.68 13.572 34.68ZM6.156 21.72C6.156 22.824 6.324 23.892 6.66 24.924C6.996 25.956 7.476 26.88 8.1 27.696C8.748 28.488 9.528 29.124 10.44 29.604C11.376 30.06 12.432 30.288 13.608 30.288C14.808 30.288 15.876 30.048 16.812 29.568C17.748 29.064 18.528 28.404 19.152 27.588C19.776 26.748 20.244 25.824 20.556 24.816C20.892 23.784 21.06 22.752 21.06 21.72C21.06 20.616 20.88 19.56 20.52 18.552C20.184 17.52 19.692 16.608 19.044 15.816C18.42 15 17.64 14.364 16.704 13.908C15.792 13.428 14.76 13.188 13.608 13.188C12.384 13.188 11.304 13.44 10.368 13.944C9.456 14.424 8.688 15.072 8.064 15.888C7.44 16.704 6.96 17.616 6.624 18.624C6.312 19.632 6.156 20.664 6.156 21.72ZM30.5589 34.5V20.316H28.0749V16.644H30.5589V16.176C30.5589 14.856 30.8229 13.668 31.3509 12.612C31.8789 11.556 32.6229 10.716 33.5829 10.092C34.5669 9.468 35.7309 9.156 37.0749 9.156C37.9629 9.156 38.8149 9.276 39.6309 9.516C40.4469 9.732 41.2869 10.032 42.1509 10.416L41.1429 14.088C40.6149 13.8 40.0869 13.596 39.5589 13.476C39.0309 13.332 38.5269 13.26 38.0469 13.26C37.6149 13.26 37.2309 13.332 36.8949 13.476C36.5589 13.62 36.2709 13.824 36.0309 14.088C35.8149 14.328 35.6469 14.616 35.5269 14.952C35.4309 15.288 35.3829 15.636 35.3829 15.996V16.644H39.9909V20.316H35.3829V34.5H30.5589ZM39.9909 34.5V20.316H37.5069V16.644H39.9909V15.492C39.9909 13.932 40.2429 12.588 40.7469 11.46C41.2749 10.308 42.0069 9.42 42.9429 8.796C43.9029 8.172 45.0189 7.86 46.2909 7.86C47.0589 7.86 47.8269 7.956 48.5949 8.148C49.3869 8.34 50.1669 8.616 50.9349 8.976L49.9629 12.612C49.6029 12.42 49.1829 12.264 48.7029 12.144C48.2229 12 47.7669 11.928 47.3349 11.928C46.5189 11.928 45.8949 12.216 45.4629 12.792C45.0309 13.368 44.8149 14.208 44.8149 15.312V16.644H49.4229V20.316H44.8149V34.5H39.9909ZM52.9726 34.5V8.94H64.2766C65.4526 8.94 66.5326 9.18 67.5166 9.66C68.5246 10.14 69.3886 10.788 70.1086 11.604C70.8526 12.42 71.4166 13.332 71.8006 14.34C72.2086 15.348 72.4126 16.38 72.4126 17.436C72.4126 18.516 72.2206 19.56 71.8366 20.568C71.4766 21.552 70.9486 22.416 70.2526 23.16C69.5566 23.904 68.7406 24.48 67.8046 24.888L73.6366 34.5H68.1646L62.9086 25.932H57.9406V34.5H52.9726ZM57.9406 21.576H64.1686C64.7926 21.576 65.3446 21.396 65.8246 21.036C66.3046 20.652 66.6886 20.148 66.9766 19.524C67.2646 18.9 67.4086 18.204 67.4086 17.436C67.4086 16.62 67.2406 15.912 66.9046 15.312C66.5686 14.688 66.1366 14.196 65.6086 13.836C65.1046 13.476 64.5526 13.296 63.9526 13.296H57.9406V21.576ZM74.8336 28.92C74.8336 27.696 75.1696 26.628 75.8416 25.716C76.5376 24.78 77.4976 24.06 78.7216 23.556C79.9456 23.052 81.3496 22.8 82.9336 22.8C83.7256 22.8 84.5296 22.86 85.3456 22.98C86.1616 23.1 86.8696 23.292 87.4696 23.556V22.548C87.4696 21.348 87.1096 20.424 86.3896 19.776C85.6936 19.128 84.6496 18.804 83.2576 18.804C82.2256 18.804 81.2416 18.984 80.3056 19.344C79.3696 19.704 78.3856 20.232 77.3536 20.928L75.8056 17.76C77.0536 16.944 78.3256 16.332 79.6216 15.924C80.9416 15.516 82.3216 15.312 83.7616 15.312C86.4496 15.312 88.5376 15.984 90.0256 17.328C91.5376 18.672 92.2936 20.592 92.2936 23.088V29.1C92.2936 29.604 92.3776 29.964 92.5456 30.18C92.7376 30.396 93.0376 30.528 93.4456 30.576V34.5C93.0136 34.572 92.6176 34.632 92.2576 34.68C91.9216 34.728 91.6336 34.752 91.3936 34.752C90.4336 34.752 89.7016 34.536 89.1976 34.104C88.7176 33.672 88.4176 33.144 88.2976 32.52L88.1896 31.548C87.3736 32.604 86.3536 33.42 85.1296 33.996C83.9056 34.572 82.6576 34.86 81.3856 34.86C80.1376 34.86 79.0096 34.608 78.0016 34.104C77.0176 33.576 76.2376 32.868 75.6616 31.98C75.1096 31.068 74.8336 30.048 74.8336 28.92ZM86.5696 29.892C86.8336 29.604 87.0496 29.316 87.2176 29.028C87.3856 28.74 87.4696 28.476 87.4696 28.236V26.328C86.8936 26.088 86.2696 25.908 85.5976 25.788C84.9256 25.644 84.2896 25.572 83.6896 25.572C82.4416 25.572 81.4096 25.848 80.5936 26.4C79.8016 26.928 79.4056 27.636 79.4056 28.524C79.4056 29.004 79.5376 29.46 79.8016 29.892C80.0656 30.324 80.4496 30.672 80.9536 30.936C81.4576 31.2 82.0576 31.332 82.7536 31.332C83.4736 31.332 84.1816 31.2 84.8776 30.936C85.5736 30.648 86.1376 30.3 86.5696 29.892ZM126.105 34.5H121.281V23.916C121.281 22.428 121.017 21.336 120.489 20.64C119.985 19.92 119.277 19.56 118.365 19.56C117.429 19.56 116.529 19.932 115.665 20.676C114.825 21.396 114.225 22.344 113.865 23.52V34.5H109.041V23.916C109.041 22.404 108.777 21.3 108.249 20.604C107.745 19.908 107.037 19.56 106.125 19.56C105.189 19.56 104.289 19.92 103.425 20.64C102.585 21.36 101.985 22.308 101.625 23.484V34.5H96.8015V15.636H101.157V19.128C101.877 17.904 102.837 16.968 104.037 16.32C105.237 15.648 106.617 15.312 108.177 15.312C109.737 15.312 110.949 15.696 111.813 16.464C112.701 17.232 113.265 18.18 113.505 19.308C114.273 18.012 115.245 17.028 116.421 16.356C117.621 15.66 118.965 15.312 120.453 15.312C121.629 15.312 122.577 15.528 123.297 15.96C124.041 16.368 124.617 16.932 125.025 17.652C125.433 18.348 125.709 19.14 125.853 20.028C126.021 20.916 126.105 21.816 126.105 22.728V34.5ZM141.609 34.86C140.145 34.86 138.849 34.536 137.721 33.888C136.617 33.216 135.753 32.316 135.129 31.188V42.168H130.305V15.636H134.517V18.876C135.237 17.772 136.149 16.908 137.253 16.284C138.357 15.636 139.617 15.312 141.033 15.312C142.305 15.312 143.469 15.564 144.525 16.068C145.605 16.572 146.541 17.28 147.333 18.192C148.125 19.08 148.737 20.112 149.169 21.288C149.625 22.44 149.853 23.688 149.853 25.032C149.853 26.856 149.493 28.512 148.773 30C148.077 31.488 147.105 32.676 145.857 33.564C144.633 34.428 143.217 34.86 141.609 34.86ZM139.989 30.756C140.733 30.756 141.405 30.6 142.005 30.288C142.605 29.976 143.121 29.556 143.553 29.028C144.009 28.476 144.345 27.864 144.561 27.192C144.801 26.496 144.921 25.776 144.921 25.032C144.921 24.24 144.789 23.508 144.525 22.836C144.285 22.164 143.925 21.576 143.445 21.072C142.965 20.544 142.401 20.136 141.753 19.848C141.129 19.56 140.445 19.416 139.701 19.416C139.245 19.416 138.777 19.5 138.297 19.668C137.841 19.812 137.397 20.028 136.965 20.316C136.533 20.604 136.149 20.94 135.813 21.324C135.501 21.708 135.273 22.128 135.129 22.584V27.012C135.417 27.708 135.801 28.344 136.281 28.92C136.785 29.496 137.361 29.952 138.009 30.288C138.657 30.6 139.317 30.756 139.989 30.756Z" fill="url(#paint0_linear_15_4541)"/>
<defs>
<linearGradient id="paint0_linear_15_4541" x1="75.5" y1="0.5" x2="75.5" y2="42.5" gradientUnits="userSpaceOnUse">
<stop stop-color="#4A5192"/>
<stop offset="1" stop-color="#F4FFF7"/>
</linearGradient>
</defs>
</svg>
