<svg width="853" height="1117" viewBox="0 0 853 1117" fill="none" xmlns="http://www.w3.org/2000/svg">
<rect x="-6.59253" y="1.76562" width="818.55" height="1116.53" fill="url(#paint0_linear_380_568)"/>
<g filter="url(#filter0_f_380_568)">
<path d="M54.9155 -54.2344H752.821V34.7695C752.821 200.455 618.506 334.77 452.821 334.77H354.916C189.23 334.77 54.9155 200.455 54.9155 34.7695V-54.2344Z" fill="url(#paint1_linear_380_568)"/>
</g>
<g opacity="0.5">
<rect x="405.862" y="9.16113" width="99" height="99" rx="9.5" fill="#4A5192" fill-opacity="0.2" stroke="url(#paint2_linear_380_568)"/>
<mask id="path-4-inside-1_380_568" fill="white">
<path d="M505.362 18.6611C505.362 13.1383 509.839 8.66113 515.362 8.66113H595.362C600.884 8.66113 605.362 13.1383 605.362 18.6611V98.6611C605.362 104.184 600.884 108.661 595.362 108.661H515.362C509.839 108.661 505.362 104.184 505.362 98.6611V18.6611Z"/>
</mask>
<path d="M505.362 18.6611C505.362 13.1383 509.839 8.66113 515.362 8.66113H595.362C600.884 8.66113 605.362 13.1383 605.362 18.6611V98.6611C605.362 104.184 600.884 108.661 595.362 108.661H515.362C509.839 108.661 505.362 104.184 505.362 98.6611V18.6611Z" fill="#4A5192" fill-opacity="0.2"/>
<path d="M505.362 18.6611C505.362 12.586 510.286 7.66113 516.362 7.66113H595.362C601.437 7.66113 606.362 12.586 606.362 18.6611H604.362C604.362 13.6906 600.332 9.66113 595.362 9.66113H515.362C509.839 9.66113 505.362 13.6906 505.362 18.6611ZM606.362 98.6611C606.362 104.736 601.437 109.661 595.362 109.661H516.362C510.286 109.661 505.362 104.736 505.362 98.6611C505.362 103.632 509.839 107.661 515.362 107.661H595.362C600.332 107.661 604.362 103.632 604.362 98.6611H606.362ZM505.362 108.661V8.66113V108.661ZM595.362 7.66113C601.437 7.66113 606.362 12.586 606.362 18.6611V98.6611C606.362 104.736 601.437 109.661 595.362 109.661V107.661C600.332 107.661 604.362 103.632 604.362 98.6611V18.6611C604.362 13.6906 600.332 9.66113 595.362 9.66113V7.66113Z" fill="url(#paint3_linear_380_568)" mask="url(#path-4-inside-1_380_568)"/>
<rect x="205.862" y="9.16113" width="99" height="99" rx="9.5" fill="#4A5192" fill-opacity="0.2" stroke="url(#paint4_linear_380_568)"/>
<mask id="path-7-inside-2_380_568" fill="white">
<path d="M305.362 18.6611C305.362 13.1383 309.839 8.66113 315.362 8.66113H395.362C400.885 8.66113 405.362 13.1383 405.362 18.6611V98.6611C405.362 104.184 400.885 108.661 395.362 108.661H315.362C309.839 108.661 305.362 104.184 305.362 98.6611V18.6611Z"/>
</mask>
<path d="M305.362 18.6611C305.362 13.1383 309.839 8.66113 315.362 8.66113H395.362C400.885 8.66113 405.362 13.1383 405.362 18.6611V98.6611C405.362 104.184 400.885 108.661 395.362 108.661H315.362C309.839 108.661 305.362 104.184 305.362 98.6611V18.6611Z" fill="#4A5192"/>
<path d="M305.362 18.6611C305.362 12.586 310.287 7.66113 316.362 7.66113H395.362C401.437 7.66113 406.362 12.586 406.362 18.6611H404.362C404.362 13.6906 400.332 9.66113 395.362 9.66113H315.362C309.839 9.66113 305.362 13.6906 305.362 18.6611ZM406.362 98.6611C406.362 104.736 401.437 109.661 395.362 109.661H316.362C310.287 109.661 305.362 104.736 305.362 98.6611C305.362 103.632 309.839 107.661 315.362 107.661H395.362C400.332 107.661 404.362 103.632 404.362 98.6611H406.362ZM305.362 108.661V8.66113V108.661ZM395.362 7.66113C401.437 7.66113 406.362 12.586 406.362 18.6611V98.6611C406.362 104.736 401.437 109.661 395.362 109.661V107.661C400.332 107.661 404.362 103.632 404.362 98.6611V18.6611C404.362 13.6906 400.332 9.66113 395.362 9.66113V7.66113Z" fill="url(#paint5_linear_380_568)" mask="url(#path-7-inside-2_380_568)"/>
<rect x="6.86182" y="9.16113" width="99" height="99" rx="9.5" fill="#4A5192" fill-opacity="0.2" stroke="url(#paint6_linear_380_568)"/>
<mask id="path-10-inside-3_380_568" fill="white">
<path d="M106.362 18.6611C106.362 13.1383 110.839 8.66113 116.362 8.66113H196.362C201.885 8.66113 206.362 13.1383 206.362 18.6611V98.6611C206.362 104.184 201.885 108.661 196.362 108.661H116.362C110.839 108.661 106.362 104.184 106.362 98.6611V18.6611Z"/>
</mask>
<path d="M106.362 18.6611C106.362 13.1383 110.839 8.66113 116.362 8.66113H196.362C201.885 8.66113 206.362 13.1383 206.362 18.6611V98.6611C206.362 104.184 201.885 108.661 196.362 108.661H116.362C110.839 108.661 106.362 104.184 106.362 98.6611V18.6611Z" fill="#4A5192" fill-opacity="0.2"/>
<path d="M106.362 18.6611C106.362 12.586 111.287 7.66113 117.362 7.66113H196.362C202.437 7.66113 207.362 12.586 207.362 18.6611H205.362C205.362 13.6906 201.332 9.66113 196.362 9.66113H116.362C110.839 9.66113 106.362 13.6906 106.362 18.6611ZM207.362 98.6611C207.362 104.736 202.437 109.661 196.362 109.661H117.362C111.287 109.661 106.362 104.736 106.362 98.6611C106.362 103.632 110.839 107.661 116.362 107.661H196.362C201.332 107.661 205.362 103.632 205.362 98.6611H207.362ZM106.362 108.661V8.66113V108.661ZM196.362 7.66113C202.437 7.66113 207.362 12.586 207.362 18.6611V98.6611C207.362 104.736 202.437 109.661 196.362 109.661V107.661C201.332 107.661 205.362 103.632 205.362 98.6611V18.6611C205.362 13.6906 201.332 9.66113 196.362 9.66113V7.66113Z" fill="url(#paint7_linear_380_568)" mask="url(#path-10-inside-3_380_568)"/>
<rect x="405.862" y="109.161" width="99" height="99" rx="9.5" fill="#4A5192" fill-opacity="0.2" stroke="url(#paint8_linear_380_568)"/>
<mask id="path-13-inside-4_380_568" fill="white">
<path d="M505.362 118.661C505.362 113.138 509.839 108.661 515.362 108.661H595.362C600.884 108.661 605.362 113.138 605.362 118.661V198.661C605.362 204.184 600.884 208.661 595.362 208.661H515.362C509.839 208.661 505.362 204.184 505.362 198.661V118.661Z"/>
</mask>
<path d="M505.362 118.661C505.362 113.138 509.839 108.661 515.362 108.661H595.362C600.884 108.661 605.362 113.138 605.362 118.661V198.661C605.362 204.184 600.884 208.661 595.362 208.661H515.362C509.839 208.661 505.362 204.184 505.362 198.661V118.661Z" fill="#4A5192" fill-opacity="0.2"/>
<path d="M505.362 118.661C505.362 112.586 510.286 107.661 516.362 107.661H595.362C601.437 107.661 606.362 112.586 606.362 118.661H604.362C604.362 113.691 600.332 109.661 595.362 109.661H515.362C509.839 109.661 505.362 113.691 505.362 118.661ZM606.362 198.661C606.362 204.736 601.437 209.661 595.362 209.661H516.362C510.286 209.661 505.362 204.736 505.362 198.661C505.362 203.632 509.839 207.661 515.362 207.661H595.362C600.332 207.661 604.362 203.632 604.362 198.661H606.362ZM505.362 208.661V108.661V208.661ZM595.362 107.661C601.437 107.661 606.362 112.586 606.362 118.661V198.661C606.362 204.736 601.437 209.661 595.362 209.661V207.661C600.332 207.661 604.362 203.632 604.362 198.661V118.661C604.362 113.691 600.332 109.661 595.362 109.661V107.661Z" fill="url(#paint9_linear_380_568)" mask="url(#path-13-inside-4_380_568)"/>
<rect x="205.862" y="109.161" width="99" height="99" rx="9.5" fill="#4A5192" fill-opacity="0.2" stroke="url(#paint10_linear_380_568)"/>
<mask id="path-16-inside-5_380_568" fill="white">
<path d="M305.362 118.661C305.362 113.138 309.839 108.661 315.362 108.661H395.362C400.885 108.661 405.362 113.138 405.362 118.661V198.661C405.362 204.184 400.885 208.661 395.362 208.661H315.362C309.839 208.661 305.362 204.184 305.362 198.661V118.661Z"/>
</mask>
<path d="M305.362 118.661C305.362 113.138 309.839 108.661 315.362 108.661H395.362C400.885 108.661 405.362 113.138 405.362 118.661V198.661C405.362 204.184 400.885 208.661 395.362 208.661H315.362C309.839 208.661 305.362 204.184 305.362 198.661V118.661Z" fill="#4A5192" fill-opacity="0.2"/>
<path d="M305.362 118.661C305.362 112.586 310.287 107.661 316.362 107.661H395.362C401.437 107.661 406.362 112.586 406.362 118.661H404.362C404.362 113.691 400.332 109.661 395.362 109.661H315.362C309.839 109.661 305.362 113.691 305.362 118.661ZM406.362 198.661C406.362 204.736 401.437 209.661 395.362 209.661H316.362C310.287 209.661 305.362 204.736 305.362 198.661C305.362 203.632 309.839 207.661 315.362 207.661H395.362C400.332 207.661 404.362 203.632 404.362 198.661H406.362ZM305.362 208.661V108.661V208.661ZM395.362 107.661C401.437 107.661 406.362 112.586 406.362 118.661V198.661C406.362 204.736 401.437 209.661 395.362 209.661V207.661C400.332 207.661 404.362 203.632 404.362 198.661V118.661C404.362 113.691 400.332 109.661 395.362 109.661V107.661Z" fill="url(#paint11_linear_380_568)" mask="url(#path-16-inside-5_380_568)"/>
<rect x="6.86182" y="109.161" width="99" height="99" rx="9.5" fill="#4A5192" stroke="url(#paint12_linear_380_568)"/>
<mask id="path-19-inside-6_380_568" fill="white">
<path d="M106.362 118.661C106.362 113.138 110.839 108.661 116.362 108.661H196.362C201.885 108.661 206.362 113.138 206.362 118.661V198.661C206.362 204.184 201.885 208.661 196.362 208.661H116.362C110.839 208.661 106.362 204.184 106.362 198.661V118.661Z"/>
</mask>
<path d="M106.362 118.661C106.362 113.138 110.839 108.661 116.362 108.661H196.362C201.885 108.661 206.362 113.138 206.362 118.661V198.661C206.362 204.184 201.885 208.661 196.362 208.661H116.362C110.839 208.661 106.362 204.184 106.362 198.661V118.661Z" fill="#4A5192" fill-opacity="0.2"/>
<path d="M106.362 118.661C106.362 112.586 111.287 107.661 117.362 107.661H196.362C202.437 107.661 207.362 112.586 207.362 118.661H205.362C205.362 113.691 201.332 109.661 196.362 109.661H116.362C110.839 109.661 106.362 113.691 106.362 118.661ZM207.362 198.661C207.362 204.736 202.437 209.661 196.362 209.661H117.362C111.287 209.661 106.362 204.736 106.362 198.661C106.362 203.632 110.839 207.661 116.362 207.661H196.362C201.332 207.661 205.362 203.632 205.362 198.661H207.362ZM106.362 208.661V108.661V208.661ZM196.362 107.661C202.437 107.661 207.362 112.586 207.362 118.661V198.661C207.362 204.736 202.437 209.661 196.362 209.661V207.661C201.332 207.661 205.362 203.632 205.362 198.661V118.661C205.362 113.691 201.332 109.661 196.362 109.661V107.661Z" fill="url(#paint13_linear_380_568)" mask="url(#path-19-inside-6_380_568)"/>
<rect x="405.862" y="208.161" width="99" height="99" rx="9.5" fill="#4A5192" stroke="url(#paint14_linear_380_568)"/>
<mask id="path-22-inside-7_380_568" fill="white">
<path d="M505.362 217.661C505.362 212.138 509.839 207.661 515.362 207.661H595.362C600.884 207.661 605.362 212.138 605.362 217.661V297.661C605.362 303.184 600.884 307.661 595.362 307.661H515.362C509.839 307.661 505.362 303.184 505.362 297.661V217.661Z"/>
</mask>
<path d="M505.362 217.661C505.362 212.138 509.839 207.661 515.362 207.661H595.362C600.884 207.661 605.362 212.138 605.362 217.661V297.661C605.362 303.184 600.884 307.661 595.362 307.661H515.362C509.839 307.661 505.362 303.184 505.362 297.661V217.661Z" fill="#4A5192" fill-opacity="0.2"/>
<path d="M505.362 217.661C505.362 211.586 510.286 206.661 516.362 206.661H595.362C601.437 206.661 606.362 211.586 606.362 217.661H604.362C604.362 212.691 600.332 208.661 595.362 208.661H515.362C509.839 208.661 505.362 212.691 505.362 217.661ZM606.362 297.661C606.362 303.736 601.437 308.661 595.362 308.661H516.362C510.286 308.661 505.362 303.736 505.362 297.661C505.362 302.632 509.839 306.661 515.362 306.661H595.362C600.332 306.661 604.362 302.632 604.362 297.661H606.362ZM505.362 307.661V207.661V307.661ZM595.362 206.661C601.437 206.661 606.362 211.586 606.362 217.661V297.661C606.362 303.736 601.437 308.661 595.362 308.661V306.661C600.332 306.661 604.362 302.632 604.362 297.661V217.661C604.362 212.691 600.332 208.661 595.362 208.661V206.661Z" fill="url(#paint15_linear_380_568)" mask="url(#path-22-inside-7_380_568)"/>
<rect x="205.862" y="208.161" width="99" height="99" rx="9.5" fill="#4A5192" fill-opacity="0.2" stroke="url(#paint16_linear_380_568)"/>
<mask id="path-25-inside-8_380_568" fill="white">
<path d="M305.362 217.661C305.362 212.138 309.839 207.661 315.362 207.661H395.362C400.885 207.661 405.362 212.138 405.362 217.661V297.661C405.362 303.184 400.885 307.661 395.362 307.661H315.362C309.839 307.661 305.362 303.184 305.362 297.661V217.661Z"/>
</mask>
<path d="M305.362 217.661C305.362 212.138 309.839 207.661 315.362 207.661H395.362C400.885 207.661 405.362 212.138 405.362 217.661V297.661C405.362 303.184 400.885 307.661 395.362 307.661H315.362C309.839 307.661 305.362 303.184 305.362 297.661V217.661Z" fill="#4A5192" fill-opacity="0.2"/>
<path d="M305.362 217.661C305.362 211.586 310.287 206.661 316.362 206.661H395.362C401.437 206.661 406.362 211.586 406.362 217.661H404.362C404.362 212.691 400.332 208.661 395.362 208.661H315.362C309.839 208.661 305.362 212.691 305.362 217.661ZM406.362 297.661C406.362 303.736 401.437 308.661 395.362 308.661H316.362C310.287 308.661 305.362 303.736 305.362 297.661C305.362 302.632 309.839 306.661 315.362 306.661H395.362C400.332 306.661 404.362 302.632 404.362 297.661H406.362ZM305.362 307.661V207.661V307.661ZM395.362 206.661C401.437 206.661 406.362 211.586 406.362 217.661V297.661C406.362 303.736 401.437 308.661 395.362 308.661V306.661C400.332 306.661 404.362 302.632 404.362 297.661V217.661C404.362 212.691 400.332 208.661 395.362 208.661V206.661Z" fill="url(#paint17_linear_380_568)" mask="url(#path-25-inside-8_380_568)"/>
<rect x="6.86182" y="208.161" width="99" height="99" rx="9.5" fill="#4A5192" fill-opacity="0.2" stroke="url(#paint18_linear_380_568)"/>
<mask id="path-28-inside-9_380_568" fill="white">
<path d="M106.362 217.661C106.362 212.138 110.839 207.661 116.362 207.661H196.362C201.885 207.661 206.362 212.138 206.362 217.661V297.661C206.362 303.184 201.885 307.661 196.362 307.661H116.362C110.839 307.661 106.362 303.184 106.362 297.661V217.661Z"/>
</mask>
<path d="M106.362 217.661C106.362 212.138 110.839 207.661 116.362 207.661H196.362C201.885 207.661 206.362 212.138 206.362 217.661V297.661C206.362 303.184 201.885 307.661 196.362 307.661H116.362C110.839 307.661 106.362 303.184 106.362 297.661V217.661Z" fill="#4A5192" fill-opacity="0.2"/>
<path d="M106.362 217.661C106.362 211.586 111.287 206.661 117.362 206.661H196.362C202.437 206.661 207.362 211.586 207.362 217.661H205.362C205.362 212.691 201.332 208.661 196.362 208.661H116.362C110.839 208.661 106.362 212.691 106.362 217.661ZM207.362 297.661C207.362 303.736 202.437 308.661 196.362 308.661H117.362C111.287 308.661 106.362 303.736 106.362 297.661C106.362 302.632 110.839 306.661 116.362 306.661H196.362C201.332 306.661 205.362 302.632 205.362 297.661H207.362ZM106.362 307.661V207.661V307.661ZM196.362 206.661C202.437 206.661 207.362 211.586 207.362 217.661V297.661C207.362 303.736 202.437 308.661 196.362 308.661V306.661C201.332 306.661 205.362 302.632 205.362 297.661V217.661C205.362 212.691 201.332 208.661 196.362 208.661V206.661Z" fill="url(#paint19_linear_380_568)" mask="url(#path-28-inside-9_380_568)"/>
<rect x="405.862" y="308.161" width="99" height="99" rx="9.5" fill="#4A5192" fill-opacity="0.2" stroke="url(#paint20_linear_380_568)"/>
<mask id="path-31-inside-10_380_568" fill="white">
<path d="M505.362 317.661C505.362 312.138 509.839 307.661 515.362 307.661H595.362C600.884 307.661 605.362 312.138 605.362 317.661V397.661C605.362 403.184 600.884 407.661 595.362 407.661H515.362C509.839 407.661 505.362 403.184 505.362 397.661V317.661Z"/>
</mask>
<path d="M505.362 317.661C505.362 312.138 509.839 307.661 515.362 307.661H595.362C600.884 307.661 605.362 312.138 605.362 317.661V397.661C605.362 403.184 600.884 407.661 595.362 407.661H515.362C509.839 407.661 505.362 403.184 505.362 397.661V317.661Z" fill="#4A5192" fill-opacity="0.2"/>
<path d="M505.362 317.661C505.362 311.586 510.286 306.661 516.362 306.661H595.362C601.437 306.661 606.362 311.586 606.362 317.661H604.362C604.362 312.691 600.332 308.661 595.362 308.661H515.362C509.839 308.661 505.362 312.691 505.362 317.661ZM606.362 397.661C606.362 403.736 601.437 408.661 595.362 408.661H516.362C510.286 408.661 505.362 403.736 505.362 397.661C505.362 402.632 509.839 406.661 515.362 406.661H595.362C600.332 406.661 604.362 402.632 604.362 397.661H606.362ZM505.362 407.661V307.661V407.661ZM595.362 306.661C601.437 306.661 606.362 311.586 606.362 317.661V397.661C606.362 403.736 601.437 408.661 595.362 408.661V406.661C600.332 406.661 604.362 402.632 604.362 397.661V317.661C604.362 312.691 600.332 308.661 595.362 308.661V306.661Z" fill="url(#paint21_linear_380_568)" mask="url(#path-31-inside-10_380_568)"/>
<rect x="605.862" y="9.16113" width="99" height="99" rx="9.5" fill="#4A5192" fill-opacity="0.2" stroke="url(#paint22_linear_380_568)"/>
<mask id="path-34-inside-11_380_568" fill="white">
<path d="M705.362 18.6611C705.362 13.1383 709.839 8.66113 715.362 8.66113H795.362C800.884 8.66113 805.362 13.1383 805.362 18.6611V98.6611C805.362 104.184 800.884 108.661 795.362 108.661H715.362C709.839 108.661 705.362 104.184 705.362 98.6611V18.6611Z"/>
</mask>
<path d="M705.362 18.6611C705.362 13.1383 709.839 8.66113 715.362 8.66113H795.362C800.884 8.66113 805.362 13.1383 805.362 18.6611V98.6611C805.362 104.184 800.884 108.661 795.362 108.661H715.362C709.839 108.661 705.362 104.184 705.362 98.6611V18.6611Z" fill="#4A5192" fill-opacity="0.2"/>
<path d="M705.362 18.6611C705.362 12.586 710.286 7.66113 716.362 7.66113H795.362C801.437 7.66113 806.362 12.586 806.362 18.6611H804.362C804.362 13.6906 800.332 9.66113 795.362 9.66113H715.362C709.839 9.66113 705.362 13.6906 705.362 18.6611ZM806.362 98.6611C806.362 104.736 801.437 109.661 795.362 109.661H716.362C710.286 109.661 705.362 104.736 705.362 98.6611C705.362 103.632 709.839 107.661 715.362 107.661H795.362C800.332 107.661 804.362 103.632 804.362 98.6611H806.362ZM705.362 108.661V8.66113V108.661ZM795.362 7.66113C801.437 7.66113 806.362 12.586 806.362 18.6611V98.6611C806.362 104.736 801.437 109.661 795.362 109.661V107.661C800.332 107.661 804.362 103.632 804.362 98.6611V18.6611C804.362 13.6906 800.332 9.66113 795.362 9.66113V7.66113Z" fill="url(#paint23_linear_380_568)" mask="url(#path-34-inside-11_380_568)"/>
<rect x="605.862" y="109.161" width="99" height="99" rx="9.5" fill="#4A5192" fill-opacity="0.2" stroke="url(#paint24_linear_380_568)"/>
<mask id="path-37-inside-12_380_568" fill="white">
<path d="M705.362 118.661C705.362 113.138 709.839 108.661 715.362 108.661H795.362C800.884 108.661 805.362 113.138 805.362 118.661V198.661C805.362 204.184 800.884 208.661 795.362 208.661H715.362C709.839 208.661 705.362 204.184 705.362 198.661V118.661Z"/>
</mask>
<path d="M705.362 118.661C705.362 113.138 709.839 108.661 715.362 108.661H795.362C800.884 108.661 805.362 113.138 805.362 118.661V198.661C805.362 204.184 800.884 208.661 795.362 208.661H715.362C709.839 208.661 705.362 204.184 705.362 198.661V118.661Z" fill="#4A5192"/>
<path d="M705.362 118.661C705.362 112.586 710.286 107.661 716.362 107.661H795.362C801.437 107.661 806.362 112.586 806.362 118.661H804.362C804.362 113.691 800.332 109.661 795.362 109.661H715.362C709.839 109.661 705.362 113.691 705.362 118.661ZM806.362 198.661C806.362 204.736 801.437 209.661 795.362 209.661H716.362C710.286 209.661 705.362 204.736 705.362 198.661C705.362 203.632 709.839 207.661 715.362 207.661H795.362C800.332 207.661 804.362 203.632 804.362 198.661H806.362ZM705.362 208.661V108.661V208.661ZM795.362 107.661C801.437 107.661 806.362 112.586 806.362 118.661V198.661C806.362 204.736 801.437 209.661 795.362 209.661V207.661C800.332 207.661 804.362 203.632 804.362 198.661V118.661C804.362 113.691 800.332 109.661 795.362 109.661V107.661Z" fill="url(#paint25_linear_380_568)" mask="url(#path-37-inside-12_380_568)"/>
<rect x="605.862" y="208.161" width="99" height="99" rx="9.5" fill="#4A5192" fill-opacity="0.2" stroke="url(#paint26_linear_380_568)"/>
<mask id="path-40-inside-13_380_568" fill="white">
<path d="M705.362 217.661C705.362 212.138 709.839 207.661 715.362 207.661H795.362C800.884 207.661 805.362 212.138 805.362 217.661V297.661C805.362 303.184 800.884 307.661 795.362 307.661H715.362C709.839 307.661 705.362 303.184 705.362 297.661V217.661Z"/>
</mask>
<path d="M705.362 217.661C705.362 212.138 709.839 207.661 715.362 207.661H795.362C800.884 207.661 805.362 212.138 805.362 217.661V297.661C805.362 303.184 800.884 307.661 795.362 307.661H715.362C709.839 307.661 705.362 303.184 705.362 297.661V217.661Z" fill="#4A5192" fill-opacity="0.2"/>
<path d="M705.362 217.661C705.362 211.586 710.286 206.661 716.362 206.661H795.362C801.437 206.661 806.362 211.586 806.362 217.661H804.362C804.362 212.691 800.332 208.661 795.362 208.661H715.362C709.839 208.661 705.362 212.691 705.362 217.661ZM806.362 297.661C806.362 303.736 801.437 308.661 795.362 308.661H716.362C710.286 308.661 705.362 303.736 705.362 297.661C705.362 302.632 709.839 306.661 715.362 306.661H795.362C800.332 306.661 804.362 302.632 804.362 297.661H806.362ZM705.362 307.661V207.661V307.661ZM795.362 206.661C801.437 206.661 806.362 211.586 806.362 217.661V297.661C806.362 303.736 801.437 308.661 795.362 308.661V306.661C800.332 306.661 804.362 302.632 804.362 297.661V217.661C804.362 212.691 800.332 208.661 795.362 208.661V206.661Z" fill="url(#paint27_linear_380_568)" mask="url(#path-40-inside-13_380_568)"/>
<rect x="605.862" y="308.161" width="99" height="99" rx="9.5" fill="#4A5192" stroke="url(#paint28_linear_380_568)"/>
<mask id="path-43-inside-14_380_568" fill="white">
<path d="M705.362 317.661C705.362 312.138 709.839 307.661 715.362 307.661H795.362C800.884 307.661 805.362 312.138 805.362 317.661V397.661C805.362 403.184 800.884 407.661 795.362 407.661H715.362C709.839 407.661 705.362 403.184 705.362 397.661V317.661Z"/>
</mask>
<path d="M705.362 317.661C705.362 312.138 709.839 307.661 715.362 307.661H795.362C800.884 307.661 805.362 312.138 805.362 317.661V397.661C805.362 403.184 800.884 407.661 795.362 407.661H715.362C709.839 407.661 705.362 403.184 705.362 397.661V317.661Z" fill="#4A5192" fill-opacity="0.2"/>
<path d="M705.362 317.661C705.362 311.586 710.286 306.661 716.362 306.661H795.362C801.437 306.661 806.362 311.586 806.362 317.661H804.362C804.362 312.691 800.332 308.661 795.362 308.661H715.362C709.839 308.661 705.362 312.691 705.362 317.661ZM806.362 397.661C806.362 403.736 801.437 408.661 795.362 408.661H716.362C710.286 408.661 705.362 403.736 705.362 397.661C705.362 402.632 709.839 406.661 715.362 406.661H795.362C800.332 406.661 804.362 402.632 804.362 397.661H806.362ZM705.362 407.661V307.661V407.661ZM795.362 306.661C801.437 306.661 806.362 311.586 806.362 317.661V397.661C806.362 403.736 801.437 408.661 795.362 408.661V406.661C800.332 406.661 804.362 402.632 804.362 397.661V317.661C804.362 312.691 800.332 308.661 795.362 308.661V306.661Z" fill="url(#paint29_linear_380_568)" mask="url(#path-43-inside-14_380_568)"/>
<rect x="205.862" y="308.161" width="99" height="99" rx="9.5" fill="#4A5192" fill-opacity="0.2" stroke="url(#paint30_linear_380_568)"/>
<mask id="path-46-inside-15_380_568" fill="white">
<path d="M305.362 317.661C305.362 312.138 309.839 307.661 315.362 307.661H395.362C400.885 307.661 405.362 312.138 405.362 317.661V397.661C405.362 403.184 400.885 407.661 395.362 407.661H315.362C309.839 407.661 305.362 403.184 305.362 397.661V317.661Z"/>
</mask>
<path d="M305.362 317.661C305.362 312.138 309.839 307.661 315.362 307.661H395.362C400.885 307.661 405.362 312.138 405.362 317.661V397.661C405.362 403.184 400.885 407.661 395.362 407.661H315.362C309.839 407.661 305.362 403.184 305.362 397.661V317.661Z" fill="#4A5192" fill-opacity="0.2"/>
<path d="M305.362 317.661C305.362 311.586 310.287 306.661 316.362 306.661H395.362C401.437 306.661 406.362 311.586 406.362 317.661H404.362C404.362 312.691 400.332 308.661 395.362 308.661H315.362C309.839 308.661 305.362 312.691 305.362 317.661ZM406.362 397.661C406.362 403.736 401.437 408.661 395.362 408.661H316.362C310.287 408.661 305.362 403.736 305.362 397.661C305.362 402.632 309.839 406.661 315.362 406.661H395.362C400.332 406.661 404.362 402.632 404.362 397.661H406.362ZM305.362 407.661V307.661V407.661ZM395.362 306.661C401.437 306.661 406.362 311.586 406.362 317.661V397.661C406.362 403.736 401.437 408.661 395.362 408.661V406.661C400.332 406.661 404.362 402.632 404.362 397.661V317.661C404.362 312.691 400.332 308.661 395.362 308.661V306.661Z" fill="url(#paint31_linear_380_568)" mask="url(#path-46-inside-15_380_568)"/>
<rect x="6.86182" y="308.161" width="99" height="99" rx="9.5" fill="#4A5192" fill-opacity="0.2" stroke="url(#paint32_linear_380_568)"/>
<mask id="path-49-inside-16_380_568" fill="white">
<path d="M106.362 317.661C106.362 312.138 110.839 307.661 116.362 307.661H196.362C201.885 307.661 206.362 312.138 206.362 317.661V397.661C206.362 403.184 201.885 407.661 196.362 407.661H116.362C110.839 407.661 106.362 403.184 106.362 397.661V317.661Z"/>
</mask>
<path d="M106.362 317.661C106.362 312.138 110.839 307.661 116.362 307.661H196.362C201.885 307.661 206.362 312.138 206.362 317.661V397.661C206.362 403.184 201.885 407.661 196.362 407.661H116.362C110.839 407.661 106.362 403.184 106.362 397.661V317.661Z" fill="#4A5192"/>
<path d="M106.362 317.661C106.362 311.586 111.287 306.661 117.362 306.661H196.362C202.437 306.661 207.362 311.586 207.362 317.661H205.362C205.362 312.691 201.332 308.661 196.362 308.661H116.362C110.839 308.661 106.362 312.691 106.362 317.661ZM207.362 397.661C207.362 403.736 202.437 408.661 196.362 408.661H117.362C111.287 408.661 106.362 403.736 106.362 397.661C106.362 402.632 110.839 406.661 116.362 406.661H196.362C201.332 406.661 205.362 402.632 205.362 397.661H207.362ZM106.362 407.661V307.661V407.661ZM196.362 306.661C202.437 306.661 207.362 311.586 207.362 317.661V397.661C207.362 403.736 202.437 408.661 196.362 408.661V406.661C201.332 406.661 205.362 402.632 205.362 397.661V317.661C205.362 312.691 201.332 308.661 196.362 308.661V306.661Z" fill="url(#paint33_linear_380_568)" mask="url(#path-49-inside-16_380_568)"/>
<rect x="405.862" y="408.161" width="99" height="99" rx="9.5" fill="#4A5192" fill-opacity="0.2" stroke="url(#paint34_linear_380_568)"/>
<mask id="path-52-inside-17_380_568" fill="white">
<path d="M505.362 417.661C505.362 412.138 509.839 407.661 515.362 407.661H595.362C600.884 407.661 605.362 412.138 605.362 417.661V497.661C605.362 503.184 600.884 507.661 595.362 507.661H515.362C509.839 507.661 505.362 503.184 505.362 497.661V417.661Z"/>
</mask>
<path d="M505.362 417.661C505.362 412.138 509.839 407.661 515.362 407.661H595.362C600.884 407.661 605.362 412.138 605.362 417.661V497.661C605.362 503.184 600.884 507.661 595.362 507.661H515.362C509.839 507.661 505.362 503.184 505.362 497.661V417.661Z" fill="#4A5192" fill-opacity="0.2"/>
<path d="M505.362 417.661C505.362 411.586 510.286 406.661 516.362 406.661H595.362C601.437 406.661 606.362 411.586 606.362 417.661H604.362C604.362 412.691 600.332 408.661 595.362 408.661H515.362C509.839 408.661 505.362 412.691 505.362 417.661ZM606.362 497.661C606.362 503.736 601.437 508.661 595.362 508.661H516.362C510.286 508.661 505.362 503.736 505.362 497.661C505.362 502.632 509.839 506.661 515.362 506.661H595.362C600.332 506.661 604.362 502.632 604.362 497.661H606.362ZM505.362 507.661V407.661V507.661ZM595.362 406.661C601.437 406.661 606.362 411.586 606.362 417.661V497.661C606.362 503.736 601.437 508.661 595.362 508.661V506.661C600.332 506.661 604.362 502.632 604.362 497.661V417.661C604.362 412.691 600.332 408.661 595.362 408.661V406.661Z" fill="url(#paint35_linear_380_568)" mask="url(#path-52-inside-17_380_568)"/>
<rect x="205.862" y="408.161" width="99" height="99" rx="9.5" fill="#4A5192" fill-opacity="0.2" stroke="url(#paint36_linear_380_568)"/>
<mask id="path-55-inside-18_380_568" fill="white">
<path d="M305.362 417.661C305.362 412.138 309.839 407.661 315.362 407.661H395.362C400.885 407.661 405.362 412.138 405.362 417.661V497.661C405.362 503.184 400.885 507.661 395.362 507.661H315.362C309.839 507.661 305.362 503.184 305.362 497.661V417.661Z"/>
</mask>
<path d="M305.362 417.661C305.362 412.138 309.839 407.661 315.362 407.661H395.362C400.885 407.661 405.362 412.138 405.362 417.661V497.661C405.362 503.184 400.885 507.661 395.362 507.661H315.362C309.839 507.661 305.362 503.184 305.362 497.661V417.661Z" fill="#4A5192" fill-opacity="0.2"/>
<path d="M305.362 417.661C305.362 411.586 310.287 406.661 316.362 406.661H395.362C401.437 406.661 406.362 411.586 406.362 417.661H404.362C404.362 412.691 400.332 408.661 395.362 408.661H315.362C309.839 408.661 305.362 412.691 305.362 417.661ZM406.362 497.661C406.362 503.736 401.437 508.661 395.362 508.661H316.362C310.287 508.661 305.362 503.736 305.362 497.661C305.362 502.632 309.839 506.661 315.362 506.661H395.362C400.332 506.661 404.362 502.632 404.362 497.661H406.362ZM305.362 507.661V407.661V507.661ZM395.362 406.661C401.437 406.661 406.362 411.586 406.362 417.661V497.661C406.362 503.736 401.437 508.661 395.362 508.661V506.661C400.332 506.661 404.362 502.632 404.362 497.661V417.661C404.362 412.691 400.332 408.661 395.362 408.661V406.661Z" fill="url(#paint37_linear_380_568)" mask="url(#path-55-inside-18_380_568)"/>
<rect x="6.86182" y="408.161" width="99" height="99" rx="9.5" fill="#4A5192" fill-opacity="0.2" stroke="url(#paint38_linear_380_568)"/>
<mask id="path-58-inside-19_380_568" fill="white">
<path d="M106.362 417.661C106.362 412.138 110.839 407.661 116.362 407.661H196.362C201.885 407.661 206.362 412.138 206.362 417.661V497.661C206.362 503.184 201.885 507.661 196.362 507.661H116.362C110.839 507.661 106.362 503.184 106.362 497.661V417.661Z"/>
</mask>
<path d="M106.362 417.661C106.362 412.138 110.839 407.661 116.362 407.661H196.362C201.885 407.661 206.362 412.138 206.362 417.661V497.661C206.362 503.184 201.885 507.661 196.362 507.661H116.362C110.839 507.661 106.362 503.184 106.362 497.661V417.661Z" fill="#4A5192" fill-opacity="0.2"/>
<path d="M106.362 417.661C106.362 411.586 111.287 406.661 117.362 406.661H196.362C202.437 406.661 207.362 411.586 207.362 417.661H205.362C205.362 412.691 201.332 408.661 196.362 408.661H116.362C110.839 408.661 106.362 412.691 106.362 417.661ZM207.362 497.661C207.362 503.736 202.437 508.661 196.362 508.661H117.362C111.287 508.661 106.362 503.736 106.362 497.661C106.362 502.632 110.839 506.661 116.362 506.661H196.362C201.332 506.661 205.362 502.632 205.362 497.661H207.362ZM106.362 507.661V407.661V507.661ZM196.362 406.661C202.437 406.661 207.362 411.586 207.362 417.661V497.661C207.362 503.736 202.437 508.661 196.362 508.661V506.661C201.332 506.661 205.362 502.632 205.362 497.661V417.661C205.362 412.691 201.332 408.661 196.362 408.661V406.661Z" fill="url(#paint39_linear_380_568)" mask="url(#path-58-inside-19_380_568)"/>
<rect x="405.862" y="508.161" width="99" height="99" rx="9.5" fill="#4A5192" fill-opacity="0.2" stroke="url(#paint40_linear_380_568)"/>
<mask id="path-61-inside-20_380_568" fill="white">
<path d="M505.362 517.661C505.362 512.138 509.839 507.661 515.362 507.661H595.362C600.884 507.661 605.362 512.138 605.362 517.661V597.661C605.362 603.184 600.884 607.661 595.362 607.661H515.362C509.839 607.661 505.362 603.184 505.362 597.661V517.661Z"/>
</mask>
<path d="M505.362 517.661C505.362 512.138 509.839 507.661 515.362 507.661H595.362C600.884 507.661 605.362 512.138 605.362 517.661V597.661C605.362 603.184 600.884 607.661 595.362 607.661H515.362C509.839 607.661 505.362 603.184 505.362 597.661V517.661Z" fill="#4A5192" fill-opacity="0.2"/>
<path d="M505.362 517.661C505.362 511.586 510.286 506.661 516.362 506.661H595.362C601.437 506.661 606.362 511.586 606.362 517.661H604.362C604.362 512.691 600.332 508.661 595.362 508.661H515.362C509.839 508.661 505.362 512.691 505.362 517.661ZM606.362 597.661C606.362 603.736 601.437 608.661 595.362 608.661H516.362C510.286 608.661 505.362 603.736 505.362 597.661C505.362 602.632 509.839 606.661 515.362 606.661H595.362C600.332 606.661 604.362 602.632 604.362 597.661H606.362ZM505.362 607.661V507.661V607.661ZM595.362 506.661C601.437 506.661 606.362 511.586 606.362 517.661V597.661C606.362 603.736 601.437 608.661 595.362 608.661V606.661C600.332 606.661 604.362 602.632 604.362 597.661V517.661C604.362 512.691 600.332 508.661 595.362 508.661V506.661Z" fill="url(#paint41_linear_380_568)" mask="url(#path-61-inside-20_380_568)"/>
<rect x="205.862" y="508.161" width="99" height="99" rx="9.5" fill="#4A5192" stroke="url(#paint42_linear_380_568)"/>
<mask id="path-64-inside-21_380_568" fill="white">
<path d="M305.362 517.661C305.362 512.138 309.839 507.661 315.362 507.661H395.362C400.885 507.661 405.362 512.138 405.362 517.661V597.661C405.362 603.184 400.885 607.661 395.362 607.661H315.362C309.839 607.661 305.362 603.184 305.362 597.661V517.661Z"/>
</mask>
<path d="M305.362 517.661C305.362 512.138 309.839 507.661 315.362 507.661H395.362C400.885 507.661 405.362 512.138 405.362 517.661V597.661C405.362 603.184 400.885 607.661 395.362 607.661H315.362C309.839 607.661 305.362 603.184 305.362 597.661V517.661Z" fill="#4A5192" fill-opacity="0.2"/>
<path d="M305.362 517.661C305.362 511.586 310.287 506.661 316.362 506.661H395.362C401.437 506.661 406.362 511.586 406.362 517.661H404.362C404.362 512.691 400.332 508.661 395.362 508.661H315.362C309.839 508.661 305.362 512.691 305.362 517.661ZM406.362 597.661C406.362 603.736 401.437 608.661 395.362 608.661H316.362C310.287 608.661 305.362 603.736 305.362 597.661C305.362 602.632 309.839 606.661 315.362 606.661H395.362C400.332 606.661 404.362 602.632 404.362 597.661H406.362ZM305.362 607.661V507.661V607.661ZM395.362 506.661C401.437 506.661 406.362 511.586 406.362 517.661V597.661C406.362 603.736 401.437 608.661 395.362 608.661V606.661C400.332 606.661 404.362 602.632 404.362 597.661V517.661C404.362 512.691 400.332 508.661 395.362 508.661V506.661Z" fill="url(#paint43_linear_380_568)" mask="url(#path-64-inside-21_380_568)"/>
<rect x="6.86182" y="508.161" width="99" height="99" rx="9.5" fill="#4A5192" fill-opacity="0.2" stroke="url(#paint44_linear_380_568)"/>
<mask id="path-67-inside-22_380_568" fill="white">
<path d="M106.362 517.661C106.362 512.138 110.839 507.661 116.362 507.661H196.362C201.885 507.661 206.362 512.138 206.362 517.661V597.661C206.362 603.184 201.885 607.661 196.362 607.661H116.362C110.839 607.661 106.362 603.184 106.362 597.661V517.661Z"/>
</mask>
<path d="M106.362 517.661C106.362 512.138 110.839 507.661 116.362 507.661H196.362C201.885 507.661 206.362 512.138 206.362 517.661V597.661C206.362 603.184 201.885 607.661 196.362 607.661H116.362C110.839 607.661 106.362 603.184 106.362 597.661V517.661Z" fill="#4A5192" fill-opacity="0.2"/>
<path d="M106.362 517.661C106.362 511.586 111.287 506.661 117.362 506.661H196.362C202.437 506.661 207.362 511.586 207.362 517.661H205.362C205.362 512.691 201.332 508.661 196.362 508.661H116.362C110.839 508.661 106.362 512.691 106.362 517.661ZM207.362 597.661C207.362 603.736 202.437 608.661 196.362 608.661H117.362C111.287 608.661 106.362 603.736 106.362 597.661C106.362 602.632 110.839 606.661 116.362 606.661H196.362C201.332 606.661 205.362 602.632 205.362 597.661H207.362ZM106.362 607.661V507.661V607.661ZM196.362 506.661C202.437 506.661 207.362 511.586 207.362 517.661V597.661C207.362 603.736 202.437 608.661 196.362 608.661V606.661C201.332 606.661 205.362 602.632 205.362 597.661V517.661C205.362 512.691 201.332 508.661 196.362 508.661V506.661Z" fill="url(#paint45_linear_380_568)" mask="url(#path-67-inside-22_380_568)"/>
<rect x="405.862" y="607.161" width="99" height="99" rx="9.5" fill="#4A5192" fill-opacity="0.2" stroke="url(#paint46_linear_380_568)"/>
<mask id="path-70-inside-23_380_568" fill="white">
<path d="M505.362 616.661C505.362 611.138 509.839 606.661 515.362 606.661H595.362C600.884 606.661 605.362 611.138 605.362 616.661V696.661C605.362 702.184 600.884 706.661 595.362 706.661H515.362C509.839 706.661 505.362 702.184 505.362 696.661V616.661Z"/>
</mask>
<path d="M505.362 616.661C505.362 611.138 509.839 606.661 515.362 606.661H595.362C600.884 606.661 605.362 611.138 605.362 616.661V696.661C605.362 702.184 600.884 706.661 595.362 706.661H515.362C509.839 706.661 505.362 702.184 505.362 696.661V616.661Z" fill="#4A5192" fill-opacity="0.2"/>
<path d="M505.362 616.661C505.362 610.586 510.286 605.661 516.362 605.661H595.362C601.437 605.661 606.362 610.586 606.362 616.661H604.362C604.362 611.691 600.332 607.661 595.362 607.661H515.362C509.839 607.661 505.362 611.691 505.362 616.661ZM606.362 696.661C606.362 702.736 601.437 707.661 595.362 707.661H516.362C510.286 707.661 505.362 702.736 505.362 696.661C505.362 701.632 509.839 705.661 515.362 705.661H595.362C600.332 705.661 604.362 701.632 604.362 696.661H606.362ZM505.362 706.661V606.661V706.661ZM595.362 605.661C601.437 605.661 606.362 610.586 606.362 616.661V696.661C606.362 702.736 601.437 707.661 595.362 707.661V705.661C600.332 705.661 604.362 701.632 604.362 696.661V616.661C604.362 611.691 600.332 607.661 595.362 607.661V605.661Z" fill="url(#paint47_linear_380_568)" mask="url(#path-70-inside-23_380_568)"/>
<rect x="205.862" y="607.161" width="99" height="99" rx="9.5" fill="#4A5192" fill-opacity="0.2" stroke="url(#paint48_linear_380_568)"/>
<mask id="path-73-inside-24_380_568" fill="white">
<path d="M305.362 616.661C305.362 611.138 309.839 606.661 315.362 606.661H395.362C400.885 606.661 405.362 611.138 405.362 616.661V696.661C405.362 702.184 400.885 706.661 395.362 706.661H315.362C309.839 706.661 305.362 702.184 305.362 696.661V616.661Z"/>
</mask>
<path d="M305.362 616.661C305.362 611.138 309.839 606.661 315.362 606.661H395.362C400.885 606.661 405.362 611.138 405.362 616.661V696.661C405.362 702.184 400.885 706.661 395.362 706.661H315.362C309.839 706.661 305.362 702.184 305.362 696.661V616.661Z" fill="#4A5192"/>
<path d="M305.362 616.661C305.362 610.586 310.287 605.661 316.362 605.661H395.362C401.437 605.661 406.362 610.586 406.362 616.661H404.362C404.362 611.691 400.332 607.661 395.362 607.661H315.362C309.839 607.661 305.362 611.691 305.362 616.661ZM406.362 696.661C406.362 702.736 401.437 707.661 395.362 707.661H316.362C310.287 707.661 305.362 702.736 305.362 696.661C305.362 701.632 309.839 705.661 315.362 705.661H395.362C400.332 705.661 404.362 701.632 404.362 696.661H406.362ZM305.362 706.661V606.661V706.661ZM395.362 605.661C401.437 605.661 406.362 610.586 406.362 616.661V696.661C406.362 702.736 401.437 707.661 395.362 707.661V705.661C400.332 705.661 404.362 701.632 404.362 696.661V616.661C404.362 611.691 400.332 607.661 395.362 607.661V605.661Z" fill="url(#paint49_linear_380_568)" mask="url(#path-73-inside-24_380_568)"/>
<rect x="6.86182" y="607.161" width="99" height="99" rx="9.5" fill="#4A5192" fill-opacity="0.2" stroke="url(#paint50_linear_380_568)"/>
<mask id="path-76-inside-25_380_568" fill="white">
<path d="M106.362 616.661C106.362 611.138 110.839 606.661 116.362 606.661H196.362C201.885 606.661 206.362 611.138 206.362 616.661V696.661C206.362 702.184 201.885 706.661 196.362 706.661H116.362C110.839 706.661 106.362 702.184 106.362 696.661V616.661Z"/>
</mask>
<path d="M106.362 616.661C106.362 611.138 110.839 606.661 116.362 606.661H196.362C201.885 606.661 206.362 611.138 206.362 616.661V696.661C206.362 702.184 201.885 706.661 196.362 706.661H116.362C110.839 706.661 106.362 702.184 106.362 696.661V616.661Z" fill="#4A5192" fill-opacity="0.2"/>
<path d="M106.362 616.661C106.362 610.586 111.287 605.661 117.362 605.661H196.362C202.437 605.661 207.362 610.586 207.362 616.661H205.362C205.362 611.691 201.332 607.661 196.362 607.661H116.362C110.839 607.661 106.362 611.691 106.362 616.661ZM207.362 696.661C207.362 702.736 202.437 707.661 196.362 707.661H117.362C111.287 707.661 106.362 702.736 106.362 696.661C106.362 701.632 110.839 705.661 116.362 705.661H196.362C201.332 705.661 205.362 701.632 205.362 696.661H207.362ZM106.362 706.661V606.661V706.661ZM196.362 605.661C202.437 605.661 207.362 610.586 207.362 616.661V696.661C207.362 702.736 202.437 707.661 196.362 707.661V705.661C201.332 705.661 205.362 701.632 205.362 696.661V616.661C205.362 611.691 201.332 607.661 196.362 607.661V605.661Z" fill="url(#paint51_linear_380_568)" mask="url(#path-76-inside-25_380_568)"/>
<rect x="405.862" y="707.161" width="99" height="99" rx="9.5" fill="#4A5192" fill-opacity="0.2" stroke="url(#paint52_linear_380_568)"/>
<mask id="path-79-inside-26_380_568" fill="white">
<path d="M505.362 716.661C505.362 711.138 509.839 706.661 515.362 706.661H595.362C600.884 706.661 605.362 711.138 605.362 716.661V796.661C605.362 802.184 600.884 806.661 595.362 806.661H515.362C509.839 806.661 505.362 802.184 505.362 796.661V716.661Z"/>
</mask>
<path d="M505.362 716.661C505.362 711.138 509.839 706.661 515.362 706.661H595.362C600.884 706.661 605.362 711.138 605.362 716.661V796.661C605.362 802.184 600.884 806.661 595.362 806.661H515.362C509.839 806.661 505.362 802.184 505.362 796.661V716.661Z" fill="#4A5192" fill-opacity="0.2"/>
<path d="M505.362 716.661C505.362 710.586 510.286 705.661 516.362 705.661H595.362C601.437 705.661 606.362 710.586 606.362 716.661H604.362C604.362 711.691 600.332 707.661 595.362 707.661H515.362C509.839 707.661 505.362 711.691 505.362 716.661ZM606.362 796.661C606.362 802.736 601.437 807.661 595.362 807.661H516.362C510.286 807.661 505.362 802.736 505.362 796.661C505.362 801.632 509.839 805.661 515.362 805.661H595.362C600.332 805.661 604.362 801.632 604.362 796.661H606.362ZM505.362 806.661V706.661V806.661ZM595.362 705.661C601.437 705.661 606.362 710.586 606.362 716.661V796.661C606.362 802.736 601.437 807.661 595.362 807.661V805.661C600.332 805.661 604.362 801.632 604.362 796.661V716.661C604.362 711.691 600.332 707.661 595.362 707.661V705.661Z" fill="url(#paint53_linear_380_568)" mask="url(#path-79-inside-26_380_568)"/>
<rect x="605.862" y="408.161" width="99" height="99" rx="9.5" fill="#4A5192" fill-opacity="0.2" stroke="url(#paint54_linear_380_568)"/>
<mask id="path-82-inside-27_380_568" fill="white">
<path d="M705.362 417.661C705.362 412.138 709.839 407.661 715.362 407.661H795.362C800.884 407.661 805.362 412.138 805.362 417.661V497.661C805.362 503.184 800.884 507.661 795.362 507.661H715.362C709.839 507.661 705.362 503.184 705.362 497.661V417.661Z"/>
</mask>
<path d="M705.362 417.661C705.362 412.138 709.839 407.661 715.362 407.661H795.362C800.884 407.661 805.362 412.138 805.362 417.661V497.661C805.362 503.184 800.884 507.661 795.362 507.661H715.362C709.839 507.661 705.362 503.184 705.362 497.661V417.661Z" fill="#4A5192"/>
<path d="M705.362 417.661C705.362 411.586 710.286 406.661 716.362 406.661H795.362C801.437 406.661 806.362 411.586 806.362 417.661H804.362C804.362 412.691 800.332 408.661 795.362 408.661H715.362C709.839 408.661 705.362 412.691 705.362 417.661ZM806.362 497.661C806.362 503.736 801.437 508.661 795.362 508.661H716.362C710.286 508.661 705.362 503.736 705.362 497.661C705.362 502.632 709.839 506.661 715.362 506.661H795.362C800.332 506.661 804.362 502.632 804.362 497.661H806.362ZM705.362 507.661V407.661V507.661ZM795.362 406.661C801.437 406.661 806.362 411.586 806.362 417.661V497.661C806.362 503.736 801.437 508.661 795.362 508.661V506.661C800.332 506.661 804.362 502.632 804.362 497.661V417.661C804.362 412.691 800.332 408.661 795.362 408.661V406.661Z" fill="url(#paint55_linear_380_568)" mask="url(#path-82-inside-27_380_568)"/>
<rect x="605.862" y="508.161" width="99" height="99" rx="9.5" fill="#4A5192" fill-opacity="0.2" stroke="url(#paint56_linear_380_568)"/>
<mask id="path-85-inside-28_380_568" fill="white">
<path d="M705.362 517.661C705.362 512.138 709.839 507.661 715.362 507.661H795.362C800.884 507.661 805.362 512.138 805.362 517.661V597.661C805.362 603.184 800.884 607.661 795.362 607.661H715.362C709.839 607.661 705.362 603.184 705.362 597.661V517.661Z"/>
</mask>
<path d="M705.362 517.661C705.362 512.138 709.839 507.661 715.362 507.661H795.362C800.884 507.661 805.362 512.138 805.362 517.661V597.661C805.362 603.184 800.884 607.661 795.362 607.661H715.362C709.839 607.661 705.362 603.184 705.362 597.661V517.661Z" fill="#4A5192" fill-opacity="0.2"/>
<path d="M705.362 517.661C705.362 511.586 710.286 506.661 716.362 506.661H795.362C801.437 506.661 806.362 511.586 806.362 517.661H804.362C804.362 512.691 800.332 508.661 795.362 508.661H715.362C709.839 508.661 705.362 512.691 705.362 517.661ZM806.362 597.661C806.362 603.736 801.437 608.661 795.362 608.661H716.362C710.286 608.661 705.362 603.736 705.362 597.661C705.362 602.632 709.839 606.661 715.362 606.661H795.362C800.332 606.661 804.362 602.632 804.362 597.661H806.362ZM705.362 607.661V507.661V607.661ZM795.362 506.661C801.437 506.661 806.362 511.586 806.362 517.661V597.661C806.362 603.736 801.437 608.661 795.362 608.661V606.661C800.332 606.661 804.362 602.632 804.362 597.661V517.661C804.362 512.691 800.332 508.661 795.362 508.661V506.661Z" fill="url(#paint57_linear_380_568)" mask="url(#path-85-inside-28_380_568)"/>
<rect x="605.862" y="607.161" width="99" height="99" rx="9.5" fill="#4A5192" fill-opacity="0.2" stroke="url(#paint58_linear_380_568)"/>
<mask id="path-88-inside-29_380_568" fill="white">
<path d="M705.362 616.661C705.362 611.138 709.839 606.661 715.362 606.661H795.362C800.884 606.661 805.362 611.138 805.362 616.661V696.661C805.362 702.184 800.884 706.661 795.362 706.661H715.362C709.839 706.661 705.362 702.184 705.362 696.661V616.661Z"/>
</mask>
<path d="M705.362 616.661C705.362 611.138 709.839 606.661 715.362 606.661H795.362C800.884 606.661 805.362 611.138 805.362 616.661V696.661C805.362 702.184 800.884 706.661 795.362 706.661H715.362C709.839 706.661 705.362 702.184 705.362 696.661V616.661Z" fill="#4A5192" fill-opacity="0.2"/>
<path d="M705.362 616.661C705.362 610.586 710.286 605.661 716.362 605.661H795.362C801.437 605.661 806.362 610.586 806.362 616.661H804.362C804.362 611.691 800.332 607.661 795.362 607.661H715.362C709.839 607.661 705.362 611.691 705.362 616.661ZM806.362 696.661C806.362 702.736 801.437 707.661 795.362 707.661H716.362C710.286 707.661 705.362 702.736 705.362 696.661C705.362 701.632 709.839 705.661 715.362 705.661H795.362C800.332 705.661 804.362 701.632 804.362 696.661H806.362ZM705.362 706.661V606.661V706.661ZM795.362 605.661C801.437 605.661 806.362 610.586 806.362 616.661V696.661C806.362 702.736 801.437 707.661 795.362 707.661V705.661C800.332 705.661 804.362 701.632 804.362 696.661V616.661C804.362 611.691 800.332 607.661 795.362 607.661V605.661Z" fill="url(#paint59_linear_380_568)" mask="url(#path-88-inside-29_380_568)"/>
<rect x="605.862" y="707.161" width="99" height="99" rx="9.5" fill="#4A5192" fill-opacity="0.2" stroke="url(#paint60_linear_380_568)"/>
<mask id="path-91-inside-30_380_568" fill="white">
<path d="M705.362 716.661C705.362 711.138 709.839 706.661 715.362 706.661H795.362C800.884 706.661 805.362 711.138 805.362 716.661V796.661C805.362 802.184 800.884 806.661 795.362 806.661H715.362C709.839 806.661 705.362 802.184 705.362 796.661V716.661Z"/>
</mask>
<path d="M705.362 716.661C705.362 711.138 709.839 706.661 715.362 706.661H795.362C800.884 706.661 805.362 711.138 805.362 716.661V796.661C805.362 802.184 800.884 806.661 795.362 806.661H715.362C709.839 806.661 705.362 802.184 705.362 796.661V716.661Z" fill="#4A5192" fill-opacity="0.2"/>
<path d="M705.362 716.661C705.362 710.586 710.286 705.661 716.362 705.661H795.362C801.437 705.661 806.362 710.586 806.362 716.661H804.362C804.362 711.691 800.332 707.661 795.362 707.661H715.362C709.839 707.661 705.362 711.691 705.362 716.661ZM806.362 796.661C806.362 802.736 801.437 807.661 795.362 807.661H716.362C710.286 807.661 705.362 802.736 705.362 796.661C705.362 801.632 709.839 805.661 715.362 805.661H795.362C800.332 805.661 804.362 801.632 804.362 796.661H806.362ZM705.362 806.661V706.661V806.661ZM795.362 705.661C801.437 705.661 806.362 710.586 806.362 716.661V796.661C806.362 802.736 801.437 807.661 795.362 807.661V805.661C800.332 805.661 804.362 801.632 804.362 796.661V716.661C804.362 711.691 800.332 707.661 795.362 707.661V705.661Z" fill="url(#paint61_linear_380_568)" mask="url(#path-91-inside-30_380_568)"/>
<rect x="205.862" y="707.161" width="99" height="99" rx="9.5" fill="#4A5192" fill-opacity="0.2" stroke="url(#paint62_linear_380_568)"/>
<mask id="path-94-inside-31_380_568" fill="white">
<path d="M305.362 716.661C305.362 711.138 309.839 706.661 315.362 706.661H395.362C400.885 706.661 405.362 711.138 405.362 716.661V796.661C405.362 802.184 400.885 806.661 395.362 806.661H315.362C309.839 806.661 305.362 802.184 305.362 796.661V716.661Z"/>
</mask>
<path d="M305.362 716.661C305.362 711.138 309.839 706.661 315.362 706.661H395.362C400.885 706.661 405.362 711.138 405.362 716.661V796.661C405.362 802.184 400.885 806.661 395.362 806.661H315.362C309.839 806.661 305.362 802.184 305.362 796.661V716.661Z" fill="#4A5192" fill-opacity="0.2"/>
<path d="M305.362 716.661C305.362 710.586 310.287 705.661 316.362 705.661H395.362C401.437 705.661 406.362 710.586 406.362 716.661H404.362C404.362 711.691 400.332 707.661 395.362 707.661H315.362C309.839 707.661 305.362 711.691 305.362 716.661ZM406.362 796.661C406.362 802.736 401.437 807.661 395.362 807.661H316.362C310.287 807.661 305.362 802.736 305.362 796.661C305.362 801.632 309.839 805.661 315.362 805.661H395.362C400.332 805.661 404.362 801.632 404.362 796.661H406.362ZM305.362 806.661V706.661V806.661ZM395.362 705.661C401.437 705.661 406.362 710.586 406.362 716.661V796.661C406.362 802.736 401.437 807.661 395.362 807.661V805.661C400.332 805.661 404.362 801.632 404.362 796.661V716.661C404.362 711.691 400.332 707.661 395.362 707.661V705.661Z" fill="url(#paint63_linear_380_568)" mask="url(#path-94-inside-31_380_568)"/>
<rect x="6.86182" y="707.161" width="99" height="99" rx="9.5" fill="#4A5192" fill-opacity="0.2" stroke="url(#paint64_linear_380_568)"/>
<mask id="path-97-inside-32_380_568" fill="white">
<path d="M106.362 716.661C106.362 711.138 110.839 706.661 116.362 706.661H196.362C201.885 706.661 206.362 711.138 206.362 716.661V796.661C206.362 802.184 201.885 806.661 196.362 806.661H116.362C110.839 806.661 106.362 802.184 106.362 796.661V716.661Z"/>
</mask>
<path d="M106.362 716.661C106.362 711.138 110.839 706.661 116.362 706.661H196.362C201.885 706.661 206.362 711.138 206.362 716.661V796.661C206.362 802.184 201.885 806.661 196.362 806.661H116.362C110.839 806.661 106.362 802.184 106.362 796.661V716.661Z" fill="#4A5192" fill-opacity="0.2"/>
<path d="M106.362 716.661C106.362 710.586 111.287 705.661 117.362 705.661H196.362C202.437 705.661 207.362 710.586 207.362 716.661H205.362C205.362 711.691 201.332 707.661 196.362 707.661H116.362C110.839 707.661 106.362 711.691 106.362 716.661ZM207.362 796.661C207.362 802.736 202.437 807.661 196.362 807.661H117.362C111.287 807.661 106.362 802.736 106.362 796.661C106.362 801.632 110.839 805.661 116.362 805.661H196.362C201.332 805.661 205.362 801.632 205.362 796.661H207.362ZM106.362 806.661V706.661V806.661ZM196.362 705.661C202.437 705.661 207.362 710.586 207.362 716.661V796.661C207.362 802.736 202.437 807.661 196.362 807.661V805.661C201.332 805.661 205.362 801.632 205.362 796.661V716.661C205.362 711.691 201.332 707.661 196.362 707.661V705.661Z" fill="url(#paint65_linear_380_568)" mask="url(#path-97-inside-32_380_568)"/>
<rect x="405.513" y="807.129" width="99" height="99" rx="9.5" fill="#4A5192" fill-opacity="0.2" stroke="url(#paint66_linear_380_568)"/>
<mask id="path-100-inside-33_380_568" fill="white">
<path d="M505.013 815.629C505.013 810.106 509.49 805.629 515.013 805.629H595.013C600.536 805.629 605.013 810.106 605.013 815.629V895.629C605.013 901.152 600.536 905.629 595.013 905.629H515.013C509.49 905.629 505.013 901.152 505.013 895.629V815.629Z"/>
</mask>
<path d="M505.013 815.629C505.013 810.106 509.49 805.629 515.013 805.629H595.013C600.536 805.629 605.013 810.106 605.013 815.629V895.629C605.013 901.152 600.536 905.629 595.013 905.629H515.013C509.49 905.629 505.013 901.152 505.013 895.629V815.629Z" fill="#4A5192"/>
<path d="M505.013 815.629C505.013 809.554 509.938 804.629 516.013 804.629H595.013C601.088 804.629 606.013 809.554 606.013 815.629H604.013C604.013 810.658 599.984 806.629 595.013 806.629H515.013C509.49 806.629 505.013 810.658 505.013 815.629ZM606.013 895.629C606.013 901.704 601.088 906.629 595.013 906.629H516.013C509.938 906.629 505.013 901.704 505.013 895.629C505.013 900.599 509.49 904.629 515.013 904.629H595.013C599.984 904.629 604.013 900.599 604.013 895.629H606.013ZM505.013 905.629V805.629V905.629ZM595.013 804.629C601.088 804.629 606.013 809.554 606.013 815.629V895.629C606.013 901.704 601.088 906.629 595.013 906.629V904.629C599.984 904.629 604.013 900.599 604.013 895.629V815.629C604.013 810.658 599.984 806.629 595.013 806.629V804.629Z" fill="url(#paint67_linear_380_568)" mask="url(#path-100-inside-33_380_568)"/>
<rect x="205.513" y="807.129" width="99" height="99" rx="9.5" fill="#4A5192" fill-opacity="0.2" stroke="url(#paint68_linear_380_568)"/>
<mask id="path-103-inside-34_380_568" fill="white">
<path d="M305.013 816.629C305.013 811.106 309.49 806.629 315.013 806.629H395.013C400.536 806.629 405.013 811.106 405.013 816.629V896.629C405.013 902.152 400.536 906.629 395.013 906.629H315.013C309.49 906.629 305.013 902.152 305.013 896.629V816.629Z"/>
</mask>
<path d="M305.013 816.629C305.013 811.106 309.49 806.629 315.013 806.629H395.013C400.536 806.629 405.013 811.106 405.013 816.629V896.629C405.013 902.152 400.536 906.629 395.013 906.629H315.013C309.49 906.629 305.013 902.152 305.013 896.629V816.629Z" fill="#4A5192"/>
<path d="M305.013 816.629C305.013 810.554 309.938 805.629 316.013 805.629H395.013C401.088 805.629 406.013 810.554 406.013 816.629H404.013C404.013 811.658 399.984 807.629 395.013 807.629H315.013C309.49 807.629 305.013 811.658 305.013 816.629ZM406.013 896.629C406.013 902.704 401.088 907.629 395.013 907.629H316.013C309.938 907.629 305.013 902.704 305.013 896.629C305.013 901.599 309.49 905.629 315.013 905.629H395.013C399.984 905.629 404.013 901.599 404.013 896.629H406.013ZM305.013 906.629V806.629V906.629ZM395.013 805.629C401.088 805.629 406.013 810.554 406.013 816.629V896.629C406.013 902.704 401.088 907.629 395.013 907.629V905.629C399.984 905.629 404.013 901.599 404.013 896.629V816.629C404.013 811.658 399.984 807.629 395.013 807.629V805.629Z" fill="url(#paint69_linear_380_568)" mask="url(#path-103-inside-34_380_568)"/>
<rect x="6.51318" y="807.129" width="99" height="99" rx="9.5" fill="#4A5192" fill-opacity="0.2" stroke="url(#paint70_linear_380_568)"/>
<mask id="path-106-inside-35_380_568" fill="white">
<path d="M106.013 816.629C106.013 811.106 110.49 806.629 116.013 806.629H196.013C201.536 806.629 206.013 811.106 206.013 816.629V896.629C206.013 902.152 201.536 906.629 196.013 906.629H116.013C110.49 906.629 106.013 902.152 106.013 896.629V816.629Z"/>
</mask>
<path d="M106.013 816.629C106.013 811.106 110.49 806.629 116.013 806.629H196.013C201.536 806.629 206.013 811.106 206.013 816.629V896.629C206.013 902.152 201.536 906.629 196.013 906.629H116.013C110.49 906.629 106.013 902.152 106.013 896.629V816.629Z" fill="#4A5192"/>
<path d="M106.013 816.629C106.013 810.554 110.938 805.629 117.013 805.629H196.013C202.088 805.629 207.013 810.554 207.013 816.629H205.013C205.013 811.658 200.984 807.629 196.013 807.629H116.013C110.49 807.629 106.013 811.658 106.013 816.629ZM207.013 896.629C207.013 902.704 202.088 907.629 196.013 907.629H117.013C110.938 907.629 106.013 902.704 106.013 896.629C106.013 901.599 110.49 905.629 116.013 905.629H196.013C200.984 905.629 205.013 901.599 205.013 896.629H207.013ZM106.013 906.629V806.629V906.629ZM196.013 805.629C202.088 805.629 207.013 810.554 207.013 816.629V896.629C207.013 902.704 202.088 907.629 196.013 907.629V905.629C200.984 905.629 205.013 901.599 205.013 896.629V816.629C205.013 811.658 200.984 807.629 196.013 807.629V805.629Z" fill="url(#paint71_linear_380_568)" mask="url(#path-106-inside-35_380_568)"/>
<rect x="405.513" y="907.129" width="99" height="99" rx="9.5" fill="#4A5192" fill-opacity="0.2" stroke="url(#paint72_linear_380_568)"/>
<mask id="path-109-inside-36_380_568" fill="white">
<path d="M705.013 916.629C705.013 911.106 700.536 906.629 695.013 906.629H615.013C609.49 906.629 605.013 911.106 605.013 916.629V996.629C605.013 1002.15 609.49 1006.63 615.013 1006.63H695.013C700.536 1006.63 705.013 1002.15 705.013 996.629V916.629Z"/>
</mask>
<path d="M705.013 916.629C705.013 911.106 700.536 906.629 695.013 906.629H615.013C609.49 906.629 605.013 911.106 605.013 916.629V996.629C605.013 1002.15 609.49 1006.63 615.013 1006.63H695.013C700.536 1006.63 705.013 1002.15 705.013 996.629V916.629Z" fill="#4A5192"/>
<path d="M705.013 916.629C705.013 910.554 700.088 905.629 694.013 905.629H615.013C608.938 905.629 604.013 910.554 604.013 916.629H606.013C606.013 911.658 610.042 907.629 615.013 907.629H695.013C700.536 907.629 705.013 911.658 705.013 916.629ZM604.013 996.629C604.013 1002.7 608.938 1007.63 615.013 1007.63H694.013C700.088 1007.63 705.013 1002.7 705.013 996.629C705.013 1001.6 700.536 1005.63 695.013 1005.63H615.013C610.042 1005.63 606.013 1001.6 606.013 996.629H604.013ZM705.013 1006.63V906.629V1006.63ZM615.013 905.629C608.938 905.629 604.013 910.554 604.013 916.629V996.629C604.013 1002.7 608.938 1007.63 615.013 1007.63V1005.63C610.042 1005.63 606.013 1001.6 606.013 996.629V916.629C606.013 911.658 610.042 907.629 615.013 907.629V905.629Z" fill="url(#paint73_linear_380_568)" mask="url(#path-109-inside-36_380_568)"/>
<rect x="205.513" y="907.129" width="99" height="99" rx="9.5" fill="#4A5192" fill-opacity="0.2" stroke="url(#paint74_linear_380_568)"/>
<mask id="path-112-inside-37_380_568" fill="white">
<path d="M305.013 916.629C305.013 911.106 309.49 906.629 315.013 906.629H395.013C400.536 906.629 405.013 911.106 405.013 916.629V996.629C405.013 1002.15 400.536 1006.63 395.013 1006.63H315.013C309.49 1006.63 305.013 1002.15 305.013 996.629V916.629Z"/>
</mask>
<path d="M305.013 916.629C305.013 911.106 309.49 906.629 315.013 906.629H395.013C400.536 906.629 405.013 911.106 405.013 916.629V996.629C405.013 1002.15 400.536 1006.63 395.013 1006.63H315.013C309.49 1006.63 305.013 1002.15 305.013 996.629V916.629Z" fill="#4A5192" fill-opacity="0.2"/>
<path d="M305.013 916.629C305.013 910.554 309.938 905.629 316.013 905.629H395.013C401.088 905.629 406.013 910.554 406.013 916.629H404.013C404.013 911.658 399.984 907.629 395.013 907.629H315.013C309.49 907.629 305.013 911.658 305.013 916.629ZM406.013 996.629C406.013 1002.7 401.088 1007.63 395.013 1007.63H316.013C309.938 1007.63 305.013 1002.7 305.013 996.629C305.013 1001.6 309.49 1005.63 315.013 1005.63H395.013C399.984 1005.63 404.013 1001.6 404.013 996.629H406.013ZM305.013 1006.63V906.629V1006.63ZM395.013 905.629C401.088 905.629 406.013 910.554 406.013 916.629V996.629C406.013 1002.7 401.088 1007.63 395.013 1007.63V1005.63C399.984 1005.63 404.013 1001.6 404.013 996.629V916.629C404.013 911.658 399.984 907.629 395.013 907.629V905.629Z" fill="url(#paint75_linear_380_568)" mask="url(#path-112-inside-37_380_568)"/>
<rect x="6.51318" y="907.129" width="99" height="99" rx="9.5" fill="#4A5192" stroke="url(#paint76_linear_380_568)"/>
<mask id="path-115-inside-38_380_568" fill="white">
<path d="M106.013 916.629C106.013 911.106 110.49 906.629 116.013 906.629H196.013C201.536 906.629 206.013 911.106 206.013 916.629V996.629C206.013 1002.15 201.536 1006.63 196.013 1006.63H116.013C110.49 1006.63 106.013 1002.15 106.013 996.629V916.629Z"/>
</mask>
<path d="M106.013 916.629C106.013 911.106 110.49 906.629 116.013 906.629H196.013C201.536 906.629 206.013 911.106 206.013 916.629V996.629C206.013 1002.15 201.536 1006.63 196.013 1006.63H116.013C110.49 1006.63 106.013 1002.15 106.013 996.629V916.629Z" fill="#4A5192" fill-opacity="0.2"/>
<path d="M106.013 916.629C106.013 910.554 110.938 905.629 117.013 905.629H196.013C202.088 905.629 207.013 910.554 207.013 916.629H205.013C205.013 911.658 200.984 907.629 196.013 907.629H116.013C110.49 907.629 106.013 911.658 106.013 916.629ZM207.013 996.629C207.013 1002.7 202.088 1007.63 196.013 1007.63H117.013C110.938 1007.63 106.013 1002.7 106.013 996.629C106.013 1001.6 110.49 1005.63 116.013 1005.63H196.013C200.984 1005.63 205.013 1001.6 205.013 996.629H207.013ZM106.013 1006.63V906.629V1006.63ZM196.013 905.629C202.088 905.629 207.013 910.554 207.013 916.629V996.629C207.013 1002.7 202.088 1007.63 196.013 1007.63V1005.63C200.984 1005.63 205.013 1001.6 205.013 996.629V916.629C205.013 911.658 200.984 907.629 196.013 907.629V905.629Z" fill="url(#paint77_linear_380_568)" mask="url(#path-115-inside-38_380_568)"/>
<rect x="405.513" y="1006.13" width="99" height="99" rx="9.5" fill="#4A5192" stroke="url(#paint78_linear_380_568)"/>
<mask id="path-118-inside-39_380_568" fill="white">
<path d="M505.013 1014.63C505.013 1009.11 509.49 1004.63 515.013 1004.63H595.013C600.536 1004.63 605.013 1009.11 605.013 1014.63V1094.63C605.013 1100.15 600.536 1104.63 595.013 1104.63H515.013C509.49 1104.63 505.013 1100.15 505.013 1094.63V1014.63Z"/>
</mask>
<path d="M505.013 1014.63C505.013 1009.11 509.49 1004.63 515.013 1004.63H595.013C600.536 1004.63 605.013 1009.11 605.013 1014.63V1094.63C605.013 1100.15 600.536 1104.63 595.013 1104.63H515.013C509.49 1104.63 505.013 1100.15 505.013 1094.63V1014.63Z" fill="#4A5192" fill-opacity="0.2"/>
<path d="M505.013 1014.63C505.013 1008.55 509.938 1003.63 516.013 1003.63H595.013C601.088 1003.63 606.013 1008.55 606.013 1014.63H604.013C604.013 1009.66 599.984 1005.63 595.013 1005.63H515.013C509.49 1005.63 505.013 1009.66 505.013 1014.63ZM606.013 1094.63C606.013 1100.7 601.088 1105.63 595.013 1105.63H516.013C509.938 1105.63 505.013 1100.7 505.013 1094.63C505.013 1099.6 509.49 1103.63 515.013 1103.63H595.013C599.984 1103.63 604.013 1099.6 604.013 1094.63H606.013ZM505.013 1104.63V1004.63V1104.63ZM595.013 1003.63C601.088 1003.63 606.013 1008.55 606.013 1014.63V1094.63C606.013 1100.7 601.088 1105.63 595.013 1105.63V1103.63C599.984 1103.63 604.013 1099.6 604.013 1094.63V1014.63C604.013 1009.66 599.984 1005.63 595.013 1005.63V1003.63Z" fill="url(#paint79_linear_380_568)" mask="url(#path-118-inside-39_380_568)"/>
<rect x="205.513" y="1006.13" width="99" height="99" rx="9.5" fill="#4A5192" fill-opacity="0.2" stroke="url(#paint80_linear_380_568)"/>
<mask id="path-121-inside-40_380_568" fill="white">
<path d="M305.013 1015.63C305.013 1010.11 309.49 1005.63 315.013 1005.63H395.013C400.536 1005.63 405.013 1010.11 405.013 1015.63V1095.63C405.013 1101.15 400.536 1105.63 395.013 1105.63H315.013C309.49 1105.63 305.013 1101.15 305.013 1095.63V1015.63Z"/>
</mask>
<path d="M305.013 1015.63C305.013 1010.11 309.49 1005.63 315.013 1005.63H395.013C400.536 1005.63 405.013 1010.11 405.013 1015.63V1095.63C405.013 1101.15 400.536 1105.63 395.013 1105.63H315.013C309.49 1105.63 305.013 1101.15 305.013 1095.63V1015.63Z" fill="#4A5192" fill-opacity="0.2"/>
<path d="M305.013 1015.63C305.013 1009.55 309.938 1004.63 316.013 1004.63H395.013C401.088 1004.63 406.013 1009.55 406.013 1015.63H404.013C404.013 1010.66 399.984 1006.63 395.013 1006.63H315.013C309.49 1006.63 305.013 1010.66 305.013 1015.63ZM406.013 1095.63C406.013 1101.7 401.088 1106.63 395.013 1106.63H316.013C309.938 1106.63 305.013 1101.7 305.013 1095.63C305.013 1100.6 309.49 1104.63 315.013 1104.63H395.013C399.984 1104.63 404.013 1100.6 404.013 1095.63H406.013ZM305.013 1105.63V1005.63V1105.63ZM395.013 1004.63C401.088 1004.63 406.013 1009.55 406.013 1015.63V1095.63C406.013 1101.7 401.088 1106.63 395.013 1106.63V1104.63C399.984 1104.63 404.013 1100.6 404.013 1095.63V1015.63C404.013 1010.66 399.984 1006.63 395.013 1006.63V1004.63Z" fill="url(#paint81_linear_380_568)" mask="url(#path-121-inside-40_380_568)"/>
<rect x="6.51318" y="1006.13" width="99" height="99" rx="9.5" fill="#4A5192" fill-opacity="0.2" stroke="url(#paint82_linear_380_568)"/>
<mask id="path-124-inside-41_380_568" fill="white">
<path d="M106.013 1015.63C106.013 1010.11 110.49 1005.63 116.013 1005.63H196.013C201.536 1005.63 206.013 1010.11 206.013 1015.63V1095.63C206.013 1101.15 201.536 1105.63 196.013 1105.63H116.013C110.49 1105.63 106.013 1101.15 106.013 1095.63V1015.63Z"/>
</mask>
<path d="M106.013 1015.63C106.013 1010.11 110.49 1005.63 116.013 1005.63H196.013C201.536 1005.63 206.013 1010.11 206.013 1015.63V1095.63C206.013 1101.15 201.536 1105.63 196.013 1105.63H116.013C110.49 1105.63 106.013 1101.15 106.013 1095.63V1015.63Z" fill="#4A5192" fill-opacity="0.2"/>
<path d="M106.013 1015.63C106.013 1009.55 110.938 1004.63 117.013 1004.63H196.013C202.088 1004.63 207.013 1009.55 207.013 1015.63H205.013C205.013 1010.66 200.984 1006.63 196.013 1006.63H116.013C110.49 1006.63 106.013 1010.66 106.013 1015.63ZM207.013 1095.63C207.013 1101.7 202.088 1106.63 196.013 1106.63H117.013C110.938 1106.63 106.013 1101.7 106.013 1095.63C106.013 1100.6 110.49 1104.63 116.013 1104.63H196.013C200.984 1104.63 205.013 1100.6 205.013 1095.63H207.013ZM106.013 1105.63V1005.63V1105.63ZM196.013 1004.63C202.088 1004.63 207.013 1009.55 207.013 1015.63V1095.63C207.013 1101.7 202.088 1106.63 196.013 1106.63V1104.63C200.984 1104.63 205.013 1100.6 205.013 1095.63V1015.63C205.013 1010.66 200.984 1006.63 196.013 1006.63V1004.63Z" fill="url(#paint83_linear_380_568)" mask="url(#path-124-inside-41_380_568)"/>
<rect x="605.513" y="807.129" width="99" height="99" rx="9.5" fill="#4A5192" fill-opacity="0.2" stroke="url(#paint84_linear_380_568)"/>
<mask id="path-127-inside-42_380_568" fill="white">
<path d="M705.013 816.629C705.013 811.106 709.49 806.629 715.013 806.629H795.013C800.536 806.629 805.013 811.106 805.013 816.629V896.629C805.013 902.152 800.536 906.629 795.013 906.629H715.013C709.49 906.629 705.013 902.152 705.013 896.629V816.629Z"/>
</mask>
<path d="M705.013 816.629C705.013 811.106 709.49 806.629 715.013 806.629H795.013C800.536 806.629 805.013 811.106 805.013 816.629V896.629C805.013 902.152 800.536 906.629 795.013 906.629H715.013C709.49 906.629 705.013 902.152 705.013 896.629V816.629Z" fill="#4A5192" fill-opacity="0.2"/>
<path d="M705.013 816.629C705.013 810.554 709.938 805.629 716.013 805.629H795.013C801.088 805.629 806.013 810.554 806.013 816.629H804.013C804.013 811.658 799.984 807.629 795.013 807.629H715.013C709.49 807.629 705.013 811.658 705.013 816.629ZM806.013 896.629C806.013 902.704 801.088 907.629 795.013 907.629H716.013C709.938 907.629 705.013 902.704 705.013 896.629C705.013 901.599 709.49 905.629 715.013 905.629H795.013C799.984 905.629 804.013 901.599 804.013 896.629H806.013ZM705.013 906.629V806.629V906.629ZM795.013 805.629C801.088 805.629 806.013 810.554 806.013 816.629V896.629C806.013 902.704 801.088 907.629 795.013 907.629V905.629C799.984 905.629 804.013 901.599 804.013 896.629V816.629C804.013 811.658 799.984 807.629 795.013 807.629V805.629Z" fill="url(#paint85_linear_380_568)" mask="url(#path-127-inside-42_380_568)"/>
<rect x="-0.5" y="0.5" width="99" height="99" rx="9.5" transform="matrix(-1 0 0 1 604.013 904.629)" fill="#4A5192" fill-opacity="0.2" stroke="url(#paint86_linear_380_568)"/>
<mask id="path-130-inside-43_380_568" fill="white">
<path d="M705.013 916.629C705.013 911.106 709.49 906.629 715.013 906.629H795.013C800.536 906.629 805.013 911.106 805.013 916.629V996.629C805.013 1002.15 800.536 1006.63 795.013 1006.63H715.013C709.49 1006.63 705.013 1002.15 705.013 996.629V916.629Z"/>
</mask>
<path d="M705.013 916.629C705.013 911.106 709.49 906.629 715.013 906.629H795.013C800.536 906.629 805.013 911.106 805.013 916.629V996.629C805.013 1002.15 800.536 1006.63 795.013 1006.63H715.013C709.49 1006.63 705.013 1002.15 705.013 996.629V916.629Z" fill="#4A5192" fill-opacity="0.2"/>
<path d="M705.013 916.629C705.013 910.554 709.938 905.629 716.013 905.629H795.013C801.088 905.629 806.013 910.554 806.013 916.629H804.013C804.013 911.658 799.984 907.629 795.013 907.629H715.013C709.49 907.629 705.013 911.658 705.013 916.629ZM806.013 996.629C806.013 1002.7 801.088 1007.63 795.013 1007.63H716.013C709.938 1007.63 705.013 1002.7 705.013 996.629C705.013 1001.6 709.49 1005.63 715.013 1005.63H795.013C799.984 1005.63 804.013 1001.6 804.013 996.629H806.013ZM705.013 1006.63V906.629V1006.63ZM795.013 905.629C801.088 905.629 806.013 910.554 806.013 916.629V996.629C806.013 1002.7 801.088 1007.63 795.013 1007.63V1005.63C799.984 1005.63 804.013 1001.6 804.013 996.629V916.629C804.013 911.658 799.984 907.629 795.013 907.629V905.629Z" fill="url(#paint87_linear_380_568)" mask="url(#path-130-inside-43_380_568)"/>
<rect x="605.513" y="1006.13" width="99" height="99" rx="9.5" fill="#4A5192" fill-opacity="0.2" stroke="url(#paint88_linear_380_568)"/>
<mask id="path-133-inside-44_380_568" fill="white">
<path d="M705.013 1015.63C705.013 1010.11 709.49 1005.63 715.013 1005.63H795.013C800.536 1005.63 805.013 1010.11 805.013 1015.63V1095.63C805.013 1101.15 800.536 1105.63 795.013 1105.63H715.013C709.49 1105.63 705.013 1101.15 705.013 1095.63V1015.63Z"/>
</mask>
<path d="M705.013 1015.63C705.013 1010.11 709.49 1005.63 715.013 1005.63H795.013C800.536 1005.63 805.013 1010.11 805.013 1015.63V1095.63C805.013 1101.15 800.536 1105.63 795.013 1105.63H715.013C709.49 1105.63 705.013 1101.15 705.013 1095.63V1015.63Z" fill="#4A5192" fill-opacity="0.2"/>
<path d="M705.013 1015.63C705.013 1009.55 709.938 1004.63 716.013 1004.63H795.013C801.088 1004.63 806.013 1009.55 806.013 1015.63H804.013C804.013 1010.66 799.984 1006.63 795.013 1006.63H715.013C709.49 1006.63 705.013 1010.66 705.013 1015.63ZM806.013 1095.63C806.013 1101.7 801.088 1106.63 795.013 1106.63H716.013C709.938 1106.63 705.013 1101.7 705.013 1095.63C705.013 1100.6 709.49 1104.63 715.013 1104.63H795.013C799.984 1104.63 804.013 1100.6 804.013 1095.63H806.013ZM705.013 1105.63V1005.63V1105.63ZM795.013 1004.63C801.088 1004.63 806.013 1009.55 806.013 1015.63V1095.63C806.013 1101.7 801.088 1106.63 795.013 1106.63V1104.63C799.984 1104.63 804.013 1100.6 804.013 1095.63V1015.63C804.013 1010.66 799.984 1006.63 795.013 1006.63V1004.63Z" fill="url(#paint89_linear_380_568)" mask="url(#path-133-inside-44_380_568)"/>
</g>
<defs>
<filter id="filter0_f_380_568" x="-45.0845" y="-154.234" width="897.905" height="589.004" filterUnits="userSpaceOnUse" color-interpolation-filters="sRGB">
<feFlood flood-opacity="0" result="BackgroundImageFix"/>
<feBlend mode="normal" in="SourceGraphic" in2="BackgroundImageFix" result="shape"/>
<feGaussianBlur stdDeviation="50" result="effect1_foregroundBlur_380_568"/>
</filter>
<linearGradient id="paint0_linear_380_568" x1="402.682" y1="1.76562" x2="402.682" y2="1118.3" gradientUnits="userSpaceOnUse">
<stop stop-color="#4A5192"/>
<stop offset="0.469453" stop-color="#7A82C9"/>
<stop offset="0.794212" stop-color="#C7CBF1"/>
<stop offset="1" stop-color="#CACDE9"/>
</linearGradient>
<linearGradient id="paint1_linear_380_568" x1="403.868" y1="-54.2344" x2="403.868" y2="334.77" gradientUnits="userSpaceOnUse">
<stop stop-color="#858DD6"/>
<stop offset="0.469453" stop-color="#7A82C9"/>
<stop offset="0.794212" stop-color="#C7CBF1"/>
<stop offset="1" stop-color="#CACDE9"/>
</linearGradient>
<linearGradient id="paint2_linear_380_568" x1="455.362" y1="8.66113" x2="455.362" y2="108.661" gradientUnits="userSpaceOnUse">
<stop stop-color="white"/>
<stop offset="1" stop-color="#282727"/>
</linearGradient>
<linearGradient id="paint3_linear_380_568" x1="555.362" y1="8.66113" x2="555.362" y2="108.661" gradientUnits="userSpaceOnUse">
<stop stop-color="white"/>
<stop offset="1" stop-color="#282828"/>
</linearGradient>
<linearGradient id="paint4_linear_380_568" x1="255.362" y1="8.66113" x2="255.362" y2="108.661" gradientUnits="userSpaceOnUse">
<stop stop-color="white"/>
<stop offset="1" stop-color="#282727"/>
</linearGradient>
<linearGradient id="paint5_linear_380_568" x1="355.362" y1="8.66113" x2="355.362" y2="108.661" gradientUnits="userSpaceOnUse">
<stop stop-color="white"/>
<stop offset="1" stop-color="#282828"/>
</linearGradient>
<linearGradient id="paint6_linear_380_568" x1="56.3618" y1="8.66113" x2="56.3618" y2="108.661" gradientUnits="userSpaceOnUse">
<stop stop-color="white"/>
<stop offset="1" stop-color="#282727"/>
</linearGradient>
<linearGradient id="paint7_linear_380_568" x1="156.362" y1="8.66113" x2="156.362" y2="108.661" gradientUnits="userSpaceOnUse">
<stop stop-color="white"/>
<stop offset="1" stop-color="#282828"/>
</linearGradient>
<linearGradient id="paint8_linear_380_568" x1="455.362" y1="108.661" x2="455.362" y2="208.661" gradientUnits="userSpaceOnUse">
<stop stop-color="white"/>
<stop offset="1" stop-color="#282727"/>
</linearGradient>
<linearGradient id="paint9_linear_380_568" x1="555.362" y1="108.661" x2="555.362" y2="208.661" gradientUnits="userSpaceOnUse">
<stop stop-color="white"/>
<stop offset="1" stop-color="#282828"/>
</linearGradient>
<linearGradient id="paint10_linear_380_568" x1="255.362" y1="108.661" x2="255.362" y2="208.661" gradientUnits="userSpaceOnUse">
<stop stop-color="white"/>
<stop offset="1" stop-color="#282727"/>
</linearGradient>
<linearGradient id="paint11_linear_380_568" x1="355.362" y1="108.661" x2="355.362" y2="208.661" gradientUnits="userSpaceOnUse">
<stop stop-color="white"/>
<stop offset="1" stop-color="#282828"/>
</linearGradient>
<linearGradient id="paint12_linear_380_568" x1="56.3618" y1="108.661" x2="56.3618" y2="208.661" gradientUnits="userSpaceOnUse">
<stop stop-color="white"/>
<stop offset="1" stop-color="#282727"/>
</linearGradient>
<linearGradient id="paint13_linear_380_568" x1="156.362" y1="108.661" x2="156.362" y2="208.661" gradientUnits="userSpaceOnUse">
<stop stop-color="white"/>
<stop offset="1" stop-color="#282828"/>
</linearGradient>
<linearGradient id="paint14_linear_380_568" x1="455.362" y1="207.661" x2="455.362" y2="307.661" gradientUnits="userSpaceOnUse">
<stop stop-color="white"/>
<stop offset="1" stop-color="#282727"/>
</linearGradient>
<linearGradient id="paint15_linear_380_568" x1="555.362" y1="207.661" x2="555.362" y2="307.661" gradientUnits="userSpaceOnUse">
<stop stop-color="white"/>
<stop offset="1" stop-color="#282828"/>
</linearGradient>
<linearGradient id="paint16_linear_380_568" x1="255.362" y1="207.661" x2="255.362" y2="307.661" gradientUnits="userSpaceOnUse">
<stop stop-color="white"/>
<stop offset="1" stop-color="#282727"/>
</linearGradient>
<linearGradient id="paint17_linear_380_568" x1="355.362" y1="207.661" x2="355.362" y2="307.661" gradientUnits="userSpaceOnUse">
<stop stop-color="white"/>
<stop offset="1" stop-color="#282828"/>
</linearGradient>
<linearGradient id="paint18_linear_380_568" x1="56.3618" y1="207.661" x2="56.3618" y2="307.661" gradientUnits="userSpaceOnUse">
<stop stop-color="white"/>
<stop offset="1" stop-color="#282727"/>
</linearGradient>
<linearGradient id="paint19_linear_380_568" x1="156.362" y1="207.661" x2="156.362" y2="307.661" gradientUnits="userSpaceOnUse">
<stop stop-color="white"/>
<stop offset="1" stop-color="#282828"/>
</linearGradient>
<linearGradient id="paint20_linear_380_568" x1="455.362" y1="307.661" x2="455.362" y2="407.661" gradientUnits="userSpaceOnUse">
<stop stop-color="white"/>
<stop offset="1" stop-color="#282727"/>
</linearGradient>
<linearGradient id="paint21_linear_380_568" x1="555.362" y1="307.661" x2="555.362" y2="407.661" gradientUnits="userSpaceOnUse">
<stop stop-color="white"/>
<stop offset="1" stop-color="#282828"/>
</linearGradient>
<linearGradient id="paint22_linear_380_568" x1="655.362" y1="8.66113" x2="655.362" y2="108.661" gradientUnits="userSpaceOnUse">
<stop stop-color="white"/>
<stop offset="1" stop-color="#282727"/>
</linearGradient>
<linearGradient id="paint23_linear_380_568" x1="755.362" y1="8.66113" x2="755.362" y2="108.661" gradientUnits="userSpaceOnUse">
<stop stop-color="white"/>
<stop offset="1" stop-color="#282828"/>
</linearGradient>
<linearGradient id="paint24_linear_380_568" x1="655.362" y1="108.661" x2="655.362" y2="208.661" gradientUnits="userSpaceOnUse">
<stop stop-color="white"/>
<stop offset="1" stop-color="#282727"/>
</linearGradient>
<linearGradient id="paint25_linear_380_568" x1="755.362" y1="108.661" x2="755.362" y2="208.661" gradientUnits="userSpaceOnUse">
<stop stop-color="white"/>
<stop offset="1" stop-color="#282828"/>
</linearGradient>
<linearGradient id="paint26_linear_380_568" x1="655.362" y1="207.661" x2="655.362" y2="307.661" gradientUnits="userSpaceOnUse">
<stop stop-color="white"/>
<stop offset="1" stop-color="#282727"/>
</linearGradient>
<linearGradient id="paint27_linear_380_568" x1="755.362" y1="207.661" x2="755.362" y2="307.661" gradientUnits="userSpaceOnUse">
<stop stop-color="white"/>
<stop offset="1" stop-color="#282828"/>
</linearGradient>
<linearGradient id="paint28_linear_380_568" x1="655.362" y1="307.661" x2="655.362" y2="407.661" gradientUnits="userSpaceOnUse">
<stop stop-color="white"/>
<stop offset="1" stop-color="#282727"/>
</linearGradient>
<linearGradient id="paint29_linear_380_568" x1="755.362" y1="307.661" x2="755.362" y2="407.661" gradientUnits="userSpaceOnUse">
<stop stop-color="white"/>
<stop offset="1" stop-color="#282828"/>
</linearGradient>
<linearGradient id="paint30_linear_380_568" x1="255.362" y1="307.661" x2="255.362" y2="407.661" gradientUnits="userSpaceOnUse">
<stop stop-color="white"/>
<stop offset="1" stop-color="#282727"/>
</linearGradient>
<linearGradient id="paint31_linear_380_568" x1="355.362" y1="307.661" x2="355.362" y2="407.661" gradientUnits="userSpaceOnUse">
<stop stop-color="white"/>
<stop offset="1" stop-color="#282828"/>
</linearGradient>
<linearGradient id="paint32_linear_380_568" x1="56.3618" y1="307.661" x2="56.3618" y2="407.661" gradientUnits="userSpaceOnUse">
<stop stop-color="white"/>
<stop offset="1" stop-color="#282727"/>
</linearGradient>
<linearGradient id="paint33_linear_380_568" x1="156.362" y1="307.661" x2="156.362" y2="407.661" gradientUnits="userSpaceOnUse">
<stop stop-color="white"/>
<stop offset="1" stop-color="#282828"/>
</linearGradient>
<linearGradient id="paint34_linear_380_568" x1="455.362" y1="407.661" x2="455.362" y2="507.661" gradientUnits="userSpaceOnUse">
<stop stop-color="white"/>
<stop offset="1" stop-color="#282727"/>
</linearGradient>
<linearGradient id="paint35_linear_380_568" x1="555.362" y1="407.661" x2="555.362" y2="507.661" gradientUnits="userSpaceOnUse">
<stop stop-color="white"/>
<stop offset="1" stop-color="#282828"/>
</linearGradient>
<linearGradient id="paint36_linear_380_568" x1="255.362" y1="407.661" x2="255.362" y2="507.661" gradientUnits="userSpaceOnUse">
<stop stop-color="white"/>
<stop offset="1" stop-color="#282727"/>
</linearGradient>
<linearGradient id="paint37_linear_380_568" x1="355.362" y1="407.661" x2="355.362" y2="507.661" gradientUnits="userSpaceOnUse">
<stop stop-color="white"/>
<stop offset="1" stop-color="#282828"/>
</linearGradient>
<linearGradient id="paint38_linear_380_568" x1="56.3618" y1="407.661" x2="56.3618" y2="507.661" gradientUnits="userSpaceOnUse">
<stop stop-color="white"/>
<stop offset="1" stop-color="#282727"/>
</linearGradient>
<linearGradient id="paint39_linear_380_568" x1="156.362" y1="407.661" x2="156.362" y2="507.661" gradientUnits="userSpaceOnUse">
<stop stop-color="white"/>
<stop offset="1" stop-color="#282828"/>
</linearGradient>
<linearGradient id="paint40_linear_380_568" x1="455.362" y1="507.661" x2="455.362" y2="607.661" gradientUnits="userSpaceOnUse">
<stop stop-color="white"/>
<stop offset="1" stop-color="#282727"/>
</linearGradient>
<linearGradient id="paint41_linear_380_568" x1="555.362" y1="507.661" x2="555.362" y2="607.661" gradientUnits="userSpaceOnUse">
<stop stop-color="white"/>
<stop offset="1" stop-color="#282828"/>
</linearGradient>
<linearGradient id="paint42_linear_380_568" x1="255.362" y1="507.661" x2="255.362" y2="607.661" gradientUnits="userSpaceOnUse">
<stop stop-color="white"/>
<stop offset="1" stop-color="#282727"/>
</linearGradient>
<linearGradient id="paint43_linear_380_568" x1="355.362" y1="507.661" x2="355.362" y2="607.661" gradientUnits="userSpaceOnUse">
<stop stop-color="white"/>
<stop offset="1" stop-color="#282828"/>
</linearGradient>
<linearGradient id="paint44_linear_380_568" x1="56.3618" y1="507.661" x2="56.3618" y2="607.661" gradientUnits="userSpaceOnUse">
<stop stop-color="white"/>
<stop offset="1" stop-color="#282727"/>
</linearGradient>
<linearGradient id="paint45_linear_380_568" x1="156.362" y1="507.661" x2="156.362" y2="607.661" gradientUnits="userSpaceOnUse">
<stop stop-color="white"/>
<stop offset="1" stop-color="#282828"/>
</linearGradient>
<linearGradient id="paint46_linear_380_568" x1="455.362" y1="606.661" x2="455.362" y2="706.661" gradientUnits="userSpaceOnUse">
<stop stop-color="white"/>
<stop offset="1" stop-color="#282727"/>
</linearGradient>
<linearGradient id="paint47_linear_380_568" x1="555.362" y1="606.661" x2="555.362" y2="706.661" gradientUnits="userSpaceOnUse">
<stop stop-color="white"/>
<stop offset="1" stop-color="#282828"/>
</linearGradient>
<linearGradient id="paint48_linear_380_568" x1="255.362" y1="606.661" x2="255.362" y2="706.661" gradientUnits="userSpaceOnUse">
<stop stop-color="white"/>
<stop offset="1" stop-color="#282727"/>
</linearGradient>
<linearGradient id="paint49_linear_380_568" x1="355.362" y1="606.661" x2="355.362" y2="706.661" gradientUnits="userSpaceOnUse">
<stop stop-color="white"/>
<stop offset="1" stop-color="#282828"/>
</linearGradient>
<linearGradient id="paint50_linear_380_568" x1="56.3618" y1="606.661" x2="56.3618" y2="706.661" gradientUnits="userSpaceOnUse">
<stop stop-color="white"/>
<stop offset="1" stop-color="#282727"/>
</linearGradient>
<linearGradient id="paint51_linear_380_568" x1="156.362" y1="606.661" x2="156.362" y2="706.661" gradientUnits="userSpaceOnUse">
<stop stop-color="white"/>
<stop offset="1" stop-color="#282828"/>
</linearGradient>
<linearGradient id="paint52_linear_380_568" x1="455.362" y1="706.661" x2="455.362" y2="806.661" gradientUnits="userSpaceOnUse">
<stop stop-color="white"/>
<stop offset="1" stop-color="#282727"/>
</linearGradient>
<linearGradient id="paint53_linear_380_568" x1="555.362" y1="706.661" x2="555.362" y2="806.661" gradientUnits="userSpaceOnUse">
<stop stop-color="white"/>
<stop offset="1" stop-color="#282828"/>
</linearGradient>
<linearGradient id="paint54_linear_380_568" x1="655.362" y1="407.661" x2="655.362" y2="507.661" gradientUnits="userSpaceOnUse">
<stop stop-color="white"/>
<stop offset="1" stop-color="#282727"/>
</linearGradient>
<linearGradient id="paint55_linear_380_568" x1="755.362" y1="407.661" x2="755.362" y2="507.661" gradientUnits="userSpaceOnUse">
<stop stop-color="white"/>
<stop offset="1" stop-color="#282828"/>
</linearGradient>
<linearGradient id="paint56_linear_380_568" x1="655.362" y1="507.661" x2="655.362" y2="607.661" gradientUnits="userSpaceOnUse">
<stop stop-color="white"/>
<stop offset="1" stop-color="#282727"/>
</linearGradient>
<linearGradient id="paint57_linear_380_568" x1="755.362" y1="507.661" x2="755.362" y2="607.661" gradientUnits="userSpaceOnUse">
<stop stop-color="white"/>
<stop offset="1" stop-color="#282828"/>
</linearGradient>
<linearGradient id="paint58_linear_380_568" x1="655.362" y1="606.661" x2="655.362" y2="706.661" gradientUnits="userSpaceOnUse">
<stop stop-color="white"/>
<stop offset="1" stop-color="#282727"/>
</linearGradient>
<linearGradient id="paint59_linear_380_568" x1="755.362" y1="606.661" x2="755.362" y2="706.661" gradientUnits="userSpaceOnUse">
<stop stop-color="white"/>
<stop offset="1" stop-color="#282828"/>
</linearGradient>
<linearGradient id="paint60_linear_380_568" x1="655.362" y1="706.661" x2="655.362" y2="806.661" gradientUnits="userSpaceOnUse">
<stop stop-color="white"/>
<stop offset="1" stop-color="#282727"/>
</linearGradient>
<linearGradient id="paint61_linear_380_568" x1="755.362" y1="706.661" x2="755.362" y2="806.661" gradientUnits="userSpaceOnUse">
<stop stop-color="white"/>
<stop offset="1" stop-color="#282828"/>
</linearGradient>
<linearGradient id="paint62_linear_380_568" x1="255.362" y1="706.661" x2="255.362" y2="806.661" gradientUnits="userSpaceOnUse">
<stop stop-color="white"/>
<stop offset="1" stop-color="#282727"/>
</linearGradient>
<linearGradient id="paint63_linear_380_568" x1="355.362" y1="706.661" x2="355.362" y2="806.661" gradientUnits="userSpaceOnUse">
<stop stop-color="white"/>
<stop offset="1" stop-color="#282828"/>
</linearGradient>
<linearGradient id="paint64_linear_380_568" x1="56.3618" y1="706.661" x2="56.3618" y2="806.661" gradientUnits="userSpaceOnUse">
<stop stop-color="white"/>
<stop offset="1" stop-color="#282727"/>
</linearGradient>
<linearGradient id="paint65_linear_380_568" x1="156.362" y1="706.661" x2="156.362" y2="806.661" gradientUnits="userSpaceOnUse">
<stop stop-color="white"/>
<stop offset="1" stop-color="#282828"/>
</linearGradient>
<linearGradient id="paint66_linear_380_568" x1="455.013" y1="806.629" x2="455.013" y2="906.629" gradientUnits="userSpaceOnUse">
<stop stop-color="white"/>
<stop offset="1" stop-color="#282727"/>
</linearGradient>
<linearGradient id="paint67_linear_380_568" x1="555.013" y1="805.629" x2="555.013" y2="905.629" gradientUnits="userSpaceOnUse">
<stop stop-color="white"/>
<stop offset="1" stop-color="#282828"/>
</linearGradient>
<linearGradient id="paint68_linear_380_568" x1="255.013" y1="806.629" x2="255.013" y2="906.629" gradientUnits="userSpaceOnUse">
<stop stop-color="white"/>
<stop offset="1" stop-color="#282727"/>
</linearGradient>
<linearGradient id="paint69_linear_380_568" x1="355.013" y1="806.629" x2="355.013" y2="906.629" gradientUnits="userSpaceOnUse">
<stop stop-color="white"/>
<stop offset="1" stop-color="#282828"/>
</linearGradient>
<linearGradient id="paint70_linear_380_568" x1="56.0132" y1="806.629" x2="56.0132" y2="906.629" gradientUnits="userSpaceOnUse">
<stop stop-color="white"/>
<stop offset="1" stop-color="#282727"/>
</linearGradient>
<linearGradient id="paint71_linear_380_568" x1="156.013" y1="806.629" x2="156.013" y2="906.629" gradientUnits="userSpaceOnUse">
<stop stop-color="white"/>
<stop offset="1" stop-color="#282828"/>
</linearGradient>
<linearGradient id="paint72_linear_380_568" x1="455.013" y1="906.629" x2="455.013" y2="1006.63" gradientUnits="userSpaceOnUse">
<stop stop-color="white"/>
<stop offset="1" stop-color="#282727"/>
</linearGradient>
<linearGradient id="paint73_linear_380_568" x1="655.013" y1="906.629" x2="655.013" y2="1006.63" gradientUnits="userSpaceOnUse">
<stop stop-color="white"/>
<stop offset="1" stop-color="#282828"/>
</linearGradient>
<linearGradient id="paint74_linear_380_568" x1="255.013" y1="906.629" x2="255.013" y2="1006.63" gradientUnits="userSpaceOnUse">
<stop stop-color="white"/>
<stop offset="1" stop-color="#282727"/>
</linearGradient>
<linearGradient id="paint75_linear_380_568" x1="355.013" y1="906.629" x2="355.013" y2="1006.63" gradientUnits="userSpaceOnUse">
<stop stop-color="white"/>
<stop offset="1" stop-color="#282828"/>
</linearGradient>
<linearGradient id="paint76_linear_380_568" x1="56.0132" y1="906.629" x2="56.0132" y2="1006.63" gradientUnits="userSpaceOnUse">
<stop stop-color="white"/>
<stop offset="1" stop-color="#282727"/>
</linearGradient>
<linearGradient id="paint77_linear_380_568" x1="156.013" y1="906.629" x2="156.013" y2="1006.63" gradientUnits="userSpaceOnUse">
<stop stop-color="white"/>
<stop offset="1" stop-color="#282828"/>
</linearGradient>
<linearGradient id="paint78_linear_380_568" x1="455.013" y1="1005.63" x2="455.013" y2="1105.63" gradientUnits="userSpaceOnUse">
<stop stop-color="white"/>
<stop offset="1" stop-color="#282727"/>
</linearGradient>
<linearGradient id="paint79_linear_380_568" x1="555.013" y1="1004.63" x2="555.013" y2="1104.63" gradientUnits="userSpaceOnUse">
<stop stop-color="white"/>
<stop offset="1" stop-color="#282828"/>
</linearGradient>
<linearGradient id="paint80_linear_380_568" x1="255.013" y1="1005.63" x2="255.013" y2="1105.63" gradientUnits="userSpaceOnUse">
<stop stop-color="white"/>
<stop offset="1" stop-color="#282727"/>
</linearGradient>
<linearGradient id="paint81_linear_380_568" x1="355.013" y1="1005.63" x2="355.013" y2="1105.63" gradientUnits="userSpaceOnUse">
<stop stop-color="white"/>
<stop offset="1" stop-color="#282828"/>
</linearGradient>
<linearGradient id="paint82_linear_380_568" x1="56.0132" y1="1005.63" x2="56.0132" y2="1105.63" gradientUnits="userSpaceOnUse">
<stop stop-color="white"/>
<stop offset="1" stop-color="#282727"/>
</linearGradient>
<linearGradient id="paint83_linear_380_568" x1="156.013" y1="1005.63" x2="156.013" y2="1105.63" gradientUnits="userSpaceOnUse">
<stop stop-color="white"/>
<stop offset="1" stop-color="#282828"/>
</linearGradient>
<linearGradient id="paint84_linear_380_568" x1="655.013" y1="806.629" x2="655.013" y2="906.629" gradientUnits="userSpaceOnUse">
<stop stop-color="white"/>
<stop offset="1" stop-color="#282727"/>
</linearGradient>
<linearGradient id="paint85_linear_380_568" x1="755.013" y1="806.629" x2="755.013" y2="906.629" gradientUnits="userSpaceOnUse">
<stop stop-color="white"/>
<stop offset="1" stop-color="#282828"/>
</linearGradient>
<linearGradient id="paint86_linear_380_568" x1="50" y1="0" x2="50" y2="100" gradientUnits="userSpaceOnUse">
<stop stop-color="white"/>
<stop offset="1" stop-color="#282727"/>
</linearGradient>
<linearGradient id="paint87_linear_380_568" x1="755.013" y1="906.629" x2="755.013" y2="1006.63" gradientUnits="userSpaceOnUse">
<stop stop-color="white"/>
<stop offset="1" stop-color="#282828"/>
</linearGradient>
<linearGradient id="paint88_linear_380_568" x1="655.013" y1="1005.63" x2="655.013" y2="1105.63" gradientUnits="userSpaceOnUse">
<stop stop-color="white"/>
<stop offset="1" stop-color="#282727"/>
</linearGradient>
<linearGradient id="paint89_linear_380_568" x1="755.013" y1="1005.63" x2="755.013" y2="1105.63" gradientUnits="userSpaceOnUse">
<stop stop-color="white"/>
<stop offset="1" stop-color="#282828"/>
</linearGradient>
</defs>
</svg>
